<?xml version="1.0" standalone="no"?>
<!DOCTYPE svg PUBLIC "-//W3C//DTD SVG 1.1//EN" "http://www.w3.org/Graphics/SVG/1.1/DTD/svg11.dtd">
<svg xmlns="http://www.w3.org/2000/svg">
<metadata>Copyright (C) 2018 by original authors @ fontello.com</metadata>
<defs>
<font id="fontello" horiz-adv-x="1000" >
<font-face font-family="fontello" font-weight="400" font-stretch="normal" units-per-em="1000" ascent="850" descent="-150" />
<missing-glyph horiz-adv-x="1000" />
<glyph glyph-name="account_balance_wallet" unicode="&#xe800;" d="M666 288c35 0 63 27 63 62s-28 63-63 63-62-28-62-63 27-62 62-62z m-166-104v332h416v-332h-416z m375-84v-41c0-45-39-84-84-84h-582c-47 0-84 39-84 84v582c0 45 37 84 84 84h582c45 0 84-39 84-84v-41h-375c-47 0-84-39-84-84v-332c0-45 37-84 84-84h375z" horiz-adv-x="1000" />

<glyph glyph-name="accumulator" unicode="&#xe801;" d="M970 570c16 0 30 14 30 31v31c0 17-14 30-30 30h-33v64c0 17-13 30-30 30h-814c-17 0-30-13-30-30v-64h-33c-16 0-30-13-30-30v-31c0-17 14-31 30-31h1v-534h-1c-16 0-30-14-30-30v-32c0-17 14-30 30-30h940c16 0 30 13 30 30v32c0 16-14 30-30 30h-1v534h1z m-63 157c1 0 1-1 1-1v-64h-35l-11 65h45z m-97 0h22l11-65h-44l11 65z m-76-65v65h46l-11-65-35 0z m-438 0v65h409v-65l-409 0z m-30 65v-65h-35l-11 65h46z m-98 0h22l11-65h-44l11 65z m-76-1c0 0 0 1 1 1h45l-10-65h-36v64z m815-156h32v-534h-783c-9 0-15-7-15-15s6-14 15-14h814c0 0 1-1 1-1v-32c0 0-1-1-1-1h-940c0 0-1 1-1 1v32c0 0 1 1 1 1h63c8 0 15 6 15 14s-7 15-15 15h-32v534h783c9 0 15 7 15 15s-6 15-15 15h-814c0 0-1 0-1 1v31c0 0 1 1 1 1h940c0 0 1-1 1-1v-31c0-1-1-1-1-1h-63c-8 0-15-7-15-15s7-15 15-15z m-164-440l-217 376c-5 9-15 15-26 15s-21-6-26-15l-217-376c-5-9-5-20 0-30s15-15 26-15h434c11 0 21 6 26 15s6 21 0 30z m-25-15c-1-1-1-1-1-1h-434c0 0 0 0-1 1s0 1 0 1l217 375c0 0 1 1 1 1s1-1 1-1l217-375c0 0 0-1 0-1z m-173 167c-5 6-12 10-20 10h-43l32 87c3 7-1 16-9 18s-16-1-19-8l-34-94c-2-7-1-15 3-22s12-10 20-10h43l-17-47c-3 3-7 4-12 4-8-2-13-9-12-17l7-43c0-6 4-10 10-12 1 0 3-1 4-1 4 0 8 2 11 5l30 31c6 6 5 15 0 21-3 2-7 4-10 4l19 52c3 7 1 15-3 22z" horiz-adv-x="1000" />

<glyph glyph-name="add" unicode="&#xe802;" d="M791 309h-250v-250h-82v250h-250v82h250v250h82v-250h250v-82z" horiz-adv-x="1000" />

<glyph glyph-name="ads-2" unicode="&#xe803;" d="M983 850h-966c-10 0-17-7-17-17v-966c0-10 7-17 17-17h966c10 0 17 7 17 17v966c0 10-7 17-17 17z m-16-967h-934v934h934v-934z m-867 650h800c10 0 17 7 17 17v200c0 10-7 17-17 17h-800c-10 0-17-7-17-17v-200c0-10 7-17 17-17z m17 200h766v-166h-766v166z m783-250h-200c-10 0-17-6-17-16v-184c0-10 7-16 17-16h200c10 0 17 6 17 16v184c0 10-7 16-17 16z m-17-163l-141 130h141v-130z m-166 108l140-128h-140v128z m183-211h-200c-10 0-17-7-17-17v-250c0-10 7-17 17-17h200c10 0 17 7 17 17v250c0 10-7 17-17 17z m-35-34l-148-186v186h148z m-130-216l148 185v-185h-148z m-635 216h283c10 0 17 7 17 17v267c0 10-7 16-17 16h-283c-10 0-17-6-17-16v-267c0-10 7-17 17-17z m43 34l224 210v-210h-224z m199 233l-225-212v212h225z m108 33h167v-33h-167v33z m0-83h167v-33h-167v33z m0-83h167v-34h-167v34z m0-84h167v-33h-167v33z m-350-100h517v-33h-517v33z m0-83h517v-33h-517v33z m0-83h517v-34h-517v34z m400 666h50v-33h-50v33z m83 0h50v-33h-50v33z m-166 0h50v-33h-50v33z" horiz-adv-x="1000" />

<glyph glyph-name="ads" unicode="&#xe804;" d="M145 786v-339h549v339h-549z m137-97c31 0 57-26 57-57v-72h-33v32h-48v-32h-32v72c0 31 25 57 56 57z m89 0h48c36 0 65-29 65-65s-29-64-65-64h-48v129z m185 0h17c22 0 40-18 40-41v-8h-32v8c0 5-4 9-8 9h-17c-4 0-8-4-8-9s4-8 8-8h17c22 0 40-18 40-40s-18-40-40-40h-17c-22 0-40 18-40 40v8h32v-8c0-4 4-8 8-8h17c4 0 8 4 8 8s-4 8-8 8h-17c-22 0-40 18-40 40s18 41 40 41z m-274-33c-13 0-24-10-24-24v-8h48v8c0 14-10 24-24 24z m121 0v-64h16c18 0 33 14 33 32s-15 32-33 32h-16z m436 33v80h-81v81h-677v-839h80v-80h81v-81h677v839h-80z m-726 129h613v-774h-613v774z m81-807h564v726h49v-774h-613v48z m693-129h-613v49h565v725h48v-774z m-742 500h549v-32h-549v32z m0-80h549v-33h-549v33z m0-81h549v-32h-549v32z" horiz-adv-x="1000" />

<glyph glyph-name="air-filter" unicode="&#xe805;" d="M979 666h-46v7c0 12-9 21-21 21h-106c-12 0-21-9-21-21v-7h-168l-44 111 4 2c11 4 16 16 12 27s-16 16-27 11l-243-95c-10-4-15-16-11-27 3-8 11-13 19-13 2 0 5 1 7 2l4 1 9-22c-195-22-347-188-347-389 0-217 176-393 392-393s393 176 393 393c0 51-10 101-29 148h29v-7c0-11 9-21 20-21h107c12 0 21 10 21 21v7h46c12 0 21 9 21 21v202c0 12-9 21-21 21z m-602 34l158 62 38-96h-181c0 0-1 0-2 0l-13 34z m15-237v0c0 0 0 0 0 0-104 0-189-85-189-189s85-190 189-190 190 85 190 190c0 60-28 113-72 148h201c21-46 33-96 33-148 0-194-158-352-352-352s-351 158-351 352c0 193 158 351 351 351h393v-162l-393 0z m45-189c0-25-20-44-45-44s-44 19-44 44 20 44 44 44c25 0 45-20 45-44z m-24 83v64c12-2 24-5 35-10l-32-55c-1 0-2 0-3 1z m-41 0c-1-1-2-1-3-1l-32 55c11 5 23 8 35 10v-64z m-71 34l32-56c-1-1-1-1-2-2l-55 32c7 10 16 18 25 26z m-46-62l55-32c0-1 0-2 0-3h-65c2 13 5 24 10 35z m55-76c0-1 0-2 0-3l-55-32c-5 11-8 23-10 35h65z m21-39c1 0 1-1 2-2l-32-55c-9 7-18 16-26 25l56 32z m38-22c1-1 2-1 3-1v-64c-12 1-24 4-35 9l32 56z m44-1c1 0 2 0 3 1l32-56c-11-5-23-8-35-9v64z m71-34l-32 55c0 1 1 2 2 2l55-32c-7-9-16-18-25-25z m46 61l-55 32c0 1 0 2 0 3h65c-2-12-5-24-10-35z m-55 76c0 1 0 2 0 3l55 32c5-11 8-22 10-35h-65z m-21 39c-1 1-2 1-2 2l32 56c9-8 18-16 25-26l-55-32z m438 103h-66v217h66v-217z m67 27h-26v162h26v-162z" horiz-adv-x="1000" />

<glyph glyph-name="arrow_back" unicode="&#xe806;" d="M834 391v-82h-508l233-234-59-59-334 334 334 334 59-59-233-234h508z" horiz-adv-x="1000" />

<glyph glyph-name="arrow_downward" unicode="&#xe807;" d="M834 350l-334-334-334 334 61 59 232-233v508h82v-508l234 233z" horiz-adv-x="1000" />

<glyph glyph-name="arrow_drop_down" unicode="&#xe808;" d="M291 434h418l-209-209z" horiz-adv-x="1000" />

<glyph glyph-name="arrow_drop_up" unicode="&#xe809;" d="M291 266l209 209 209-209h-418z" horiz-adv-x="1000" />

<glyph glyph-name="arrow_forward" unicode="&#xe80a;" d="M500 684l334-334-334-334-59 59 233 234h-508v82h508l-233 234z" horiz-adv-x="1000" />

<glyph glyph-name="arrow_upward" unicode="&#xe80b;" d="M166 350l334 334 334-334-60-59-233 233v-508h-82v508l-234-233z" horiz-adv-x="1000" />

<glyph glyph-name="attach_money" unicode="&#xe80c;" d="M492 395c94-25 196-63 196-182 0-86-65-132-147-148v-90h-125v90c-80 17-146 68-152 160h92c3-49 37-88 123-88 91 0 113 45 113 74 0 39-22 77-125 102-117 27-195 76-195 172 0 80 64 133 144 150v90h125v-92c88-21 133-86 135-158h-92c-2 53-31 88-105 88-71 0-112-33-112-78 0-39 32-65 125-90z" horiz-adv-x="1000" />

<glyph glyph-name="balancing" unicode="&#xe80d;" d="M124 573c0-7 4-14 10-17 3-2 6-3 10-3s7 1 10 3l130 75c6 4 10 10 10 17s-4 14-10 17l-130 76c-7 3-14 3-20 0s-10-10-10-17v-20h-104c-11 0-20-9-20-20v-72c0-11 9-20 20-20h104v-19z m-84 59v33h104c11 0 19 9 19 19v5l72-41-72-41v5c0 11-8 20-19 20h-104z m940-524h-104v19c0 7-4 14-10 17s-13 4-20 0l-130-75c-6-4-10-10-10-17s4-14 10-17l130-76c4-1 7-2 10-2s7 1 10 2c6 4 10 10 10 18v19h104c11 0 20 9 20 20v72c0 11-9 20-20 20z m-19-73h-105c-11 0-19-8-19-19v-5l-71 41 71 41v-5c0-11 8-20 19-20h105v-33z m-234 169c11 0 20 8 20 19v74h142c10 0 19 9 19 20v66c0 11-9 20-19 20h-142v74c0 11-9 20-20 20h-43v230c0 61-49 110-110 110h-148c-61 0-110-49-110-110v-230h-43c-11 0-20-9-20-20v-74h-141c-11 0-20-9-20-20v-66c0-11 9-20 20-20h141v-74c0-11 9-19 20-19h43v-231c0-61 49-110 110-110h148c61 0 110 49 110 110v231h43z m142 159v-26h-122v26h122z m-738-26v26h122v-26h-122z m162-94v214h23v-214h-23z m143-285c1 0 1 0 1 0 18 32 18 72 0 104 0 0 0 0 0 0-12 21-12 46 0 66 0 0 0 0 0 0 18 32 18 72 0 104 0 0 0 0 0 0-12 21-12 46 0 66 0 0 0 0 0 0 18 32 18 72 0 104-12 21-12 46 0 66 18 32 18 72 0 104 0 0 0 0 0 0-12 21-12 46 0 66 18 32 18 72 0 104 0 0 0 0 0 0-10 17-11 38-5 56h40c-6-25-2-52 11-75 0 0 0 0 0 0 11-20 11-46 0-66-18-32-18-72 0-104 0 0 0 0 0 0 11-20 11-46 0-66-18-32-18-72 0-104 11-20 11-46 0-66 0 0 0 0 0 0-18-32-18-72 0-104 0 0 0 0 0 0 11-20 11-45 0-66 0 0 0 0 0 0-18-32-18-72 0-104 0 0 0 0 0 0 11-20 11-46 0-66 0 0 0 0 0 0-13-23-17-50-11-75h-40c-6 18-5 39 5 56z m81 0c0 0 0 0 0 0 18 32 18 72 0 104 0 0 0 0 0 0-11 21-11 46 0 66 0 0 0 0 0 0 18 32 18 72 0 104 0 0 0 0 0 0-11 20-11 46 0 66 0 0 0 0 0 0 18 32 18 72 0 104-11 20-11 46 0 66 18 32 18 72 0 104 0 0 0 0 0 0-11 20-11 46 0 66 18 32 18 72 0 104 0 0 0 0 0 0-9 17-11 38-4 56h39c-5-25-1-52 11-75 0 0 0 0 0 0 12-20 12-45 1-66 0 0-1 0-1 0-18-32-18-72 0-104 0 0 0 0 0 0 12-20 12-46 0-66-18-32-18-72 0-104 12-20 12-46 0-66 0 0 0 0 0 0-18-32-18-72 0-104 0 0 0 0 0 0 12-21 12-46 0-66 0 0 0 0 0 0-18-32-18-72 0-104 0 0 0 0 0 0 12-21 12-46 1-66 0 0-1 0-1 0-12-23-16-50-11-75h-39c-7 18-5 39 4 56z m-162 15v754c0 25 14 48 34 60-2-22 2-44 13-64 0 0 0 0 0 0 12-20 12-46 0-66-18-32-18-72 0-104 0 0 0 0 0 0 12-20 12-46 0-66-18-32-18-72 0-104 12-20 12-45 0-66 0 0 0 0 0 0-18-32-18-72 0-104 0 0 0 0 0 0 12-20 12-45 0-66 0 0 0 0 0 0-18-32-18-72 0-104 0 0 0 0 0 0 12-20 12-46 0-66 0 0 0 0 0 0-11-20-15-42-13-64-20 12-34 35-34 60z m290 0c0-32-22-60-52-68-6 17-4 36 5 53 0 0 0 0 0 0 18 32 18 72 0 104 0 0 0 0 0 0-11 21-11 46 0 66 0 0 0 0 0 0 18 32 18 72 0 104 0 0 0 0 0 0-11 21-11 46 0 66 0 0 0 0 0 0 18 32 18 72 0 104-11 20-11 46 0 66 18 32 18 72 0 104 0 0 0 0 0 0-11 20-11 45 0 66 0 0 0 0 0 0 18 32 18 72 0 104 0 0 0 0 0 0-9 16-11 36-5 53 30-8 52-36 52-68v-754z m62 484v-214h-23v214h23z" horiz-adv-x="1000" />

<glyph glyph-name="battery" unicode="&#xe80e;" d="M983 517c10 0 17 7 17 16v100c0 10-7 17-17 17h-66v83c0 10-8 17-17 17h-100c-9 0-17-7-17-17v-83h-66v150c0 28-23 50-50 50h-334c-27 0-50-22-50-50v-150h-66v83c0 10-8 17-17 17h-100c-9 0-17-7-17-17v-83h-66c-9 0-17-7-17-17v-100c0-9 8-16 17-16h16v-534h-16c-9 0-17-7-17-16v-100c0-10 8-17 17-17h966c10 0 17 7 17 17v100c0 9-7 16-17 16h-16v534h16z m-166 200h66v-67h-66v67z m-500 83c0 9 7 17 16 17h334c9 0 16-8 16-17v-150h-33v117c0 9-7 16-17 16h-266c-10 0-17-7-17-16v-117h-33v150z m300-50v-100h-234v100h234z m-500-33h66v-67h-66v67z m850-834h-934v67h934v-67z m-900 100v534h866v-534h-866z m-34 567v67h934v-67h-934z m434-133v33h-317c-9 0-17-7-17-17v-366c0-9 8-17 17-17h217v33h-200v334h300z m383 33h-217v-33h200v-334h-283v-33h300c9 0 17 7 17 17v366c0 10-8 17-17 17z m-185-177c-2 6-8 10-15 10h-95l45 180c2 9-4 18-13 20-5 1-11 0-15-4l-234-234c-6-6-6-17 0-23 3-3 8-5 12-5l95-1-44-179c-3-8 3-17 12-20 5-1 11 0 15 5l234 233c5 5 6 12 3 18z m-217-185l35 140c2 9-3 18-12 20-1 0-3 1-4 1l-77 0 163 163-36-141c-2-9 4-18 12-20 2-1 3-1 4-1h77l-162-162z m-181 262v33h-34v-33h-33v-33h33v-34h34v34h33v33z m433 0h100v-33h-100v33z" horiz-adv-x="1000" />

<glyph glyph-name="brake-disc" unicode="&#xe80f;" d="M546 523c-121 0-219-98-219-218 0-121 98-219 219-219s218 98 218 219-98 218-218 218z m0-400c-101 0-182 81-182 182 0 100 81 181 182 181 100 0 181-81 181-181s-81-182-181-182z m0 254c-41 0-73-32-73-72s32-73 73-73c40 0 72 32 72 73s-32 72-72 72z m0-109c-21 0-37 17-37 37s16 36 37 36 36-16 36-36-16-37-36-37z m-19 182h37v-36h-37v36z m0-254h37v-37h-37v37z m-109 181h37v-36h-37v36z m218 0h37v-36h-37v36z m-218-109h37v-36h-37v36z m218 0h37v-36h-37v36z m37 273h36v-36h-36v36z m-37 73h37v-37h-37v37z m-36 72h36v-36h-36v36z m-218-581h36v-37h-36v37z m36-73h37v-37h-37v37z m37-73h36v-36h-36v36z m-146 509h37v-36h-37v36z m437-291h36v-36h-36v36z m72 37h37v-37h-37v37z m73 36h36v-36h-36v36z m-423 312l26 25 26-25-26-26-26 26z m103-514l26 25 26-25-26-26-26 26z m77-26l26 25 26-25-26-26-26 26z m77-26l26 26 26-26-26-26-26 26z m-462 257l25 26 26-26-26-26-25 26z m-26-77l26 26 25-26-25-26-26 26z m-26-77l26 26 26-26-26-26-26 26z m566 257l26 26 25-26-25-26-26 26z m26 77l25 26 26-26-26-26-25 26z m25 77l26 26 26-26-26-25-26 25z m-282 249v37c0 30-25 54-55 54h-109c-2 0-4 0-6-1-177-59-316-198-375-375-1-2-1-4-1-6v-109c0-30 24-54 55-54h36c0-251 203-455 455-455s454 204 454 455-203 454-454 454z m-491-418c-10 0-19 8-19 18v106c56 164 185 293 349 349h106c10 0 18-8 18-18v-130c-166-28-297-158-325-325h-129z m491-455c-231 0-419 188-419 419h73c9 0 17 6 18 16 3 25 10 51 18 76v-1h37v36h-22c31 64 80 118 142 154l24-24 26 25-16 16c33 15 67 25 103 29 9 1 16 9 16 18v73c230 0 418-187 418-418s-188-419-418-419z m-182 891h36v-36h-36v36z m-309-327h36v-36h-36v36z m127 218h36v-36h-36v36z" horiz-adv-x="1000" />

<glyph glyph-name="brake-disk" unicode="&#xe810;" d="M989 405c-27 119-98 221-201 286-63 40-135 64-210 70 0 7-2 15-4 22-12 32-40 54-74 57l-82 9c-46 5-90-11-123-43l-251-251c-32-33-48-77-43-123l9-83c3-33 25-61 57-73 7-2 15-4 22-4 11-144 88-274 210-351 76-48 160-71 244-71 151 0 299 75 386 212 65 102 86 224 60 343z m-791-68l102 102c3-2 6-3 9-3 7 0 14 4 18 10 0 0 0 0 0 0 4 7 4 14 1 21l66 66c3-3 8-5 12-5 4 0 7 1 11 3 10 5 13 18 8 28-1 1-2 2-2 3l90 90c77 7 152-11 217-53 162-102 209-317 107-479-50-78-127-133-218-153s-183-4-261 46c-56 36-100 86-128 145-27 56-37 118-32 179z m-147 17l-9 83c-3 32 8 65 32 88l251 251c23 24 55 35 88 32l83-9c18-2 32-13 38-30s2-35-10-48l-395-395c-13-12-31-16-48-10s-28 20-30 38z m843-270c-79-124-214-192-351-192-76 0-153 21-222 64-111 71-182 191-191 322 9 4 18 9 25 16 2-53 14-105 37-153 31-67 81-123 143-163 63-40 135-61 208-61 28 0 57 3 85 10 102 22 188 83 244 171 115 181 61 421-120 536-59 38-127 59-196 61 7 7 12 16 16 25 69-5 135-27 194-64 94-59 158-152 182-260s5-219-54-312z m-462 46c34-21 72-33 111-33 16 0 31 2 46 6 55 12 101 44 131 91s40 103 27 158-44 100-91 130c-97 62-227 33-288-64s-33-226 64-288z m-29 266c32 50 86 77 141 77 31 0 62-8 89-26 38-24 64-61 74-104s2-89-22-126c-24-38-61-64-105-74s-88-2-126 22c-78 50-101 153-51 231z m398-200c2-1 4-1 6-1 9 0 17 5 20 14 4 10-2 22-13 26s-23-2-26-13c-4-11 2-22 13-26z m-33 255c5 0 9 1 13 4 9 7 11 20 4 29s-20 11-29 4c-9-7-11-20-4-29 4-5 10-8 16-8z m51-123c1 0 2 0 3 0 12 2 20 12 18 23s-13 20-24 18c-11-2-19-13-17-24 1-10 10-17 20-17z m-329-274c-11 2-22-5-25-16s5-22 16-25c2 0 3 0 5 0 9 0 18 6 20 16 2 11-5 22-16 25z m123 4c-11-3-17-15-14-26 2-9 11-15 20-15 2 0 4 0 5 1 11 3 18 14 15 25s-15 18-26 15z m108 60c-9-7-9-21-1-29 4-4 10-6 15-6 5 0 10 1 14 5 9 8 9 21 1 30s-21 8-29 0z m-342-10c-9 7-22 6-30-3s-6-22 3-29c4-3 9-5 13-5 6 0 12 3 16 8 8 8 7 21-2 29z m277 430c0 0 0 0 1 0 0 0 0 0 0 0 2-1 6-2 9-2 7 0 15 4 18 12 5 10 1 23-9 28 0 0 0 0 0 0s-1 0-1 0c-10 5-22 0-27-10s-1-23 9-28z m-378-320c-10-4-15-16-11-27 3-8 11-13 19-13 3 0 6 1 8 2 11 4 16 17 12 27s-17 16-28 11z m-14 92c1 0 1 0 2 0 11 0 20 8 21 19 1 12-8 22-19 23s-22-8-23-19c-1-12 8-22 19-23z m271 254c0 0 0 0 1 0 11 0 20 10 20 22s-10 20-22 20c-11-1-20-10-20-22 0-11 10-20 21-20z m-68-378c23-15 50-23 76-23 11 0 21 1 32 4 37 8 69 30 89 63s28 70 19 107c-8 38-30 69-63 90 0 0 0 0 0 0-66 42-155 22-197-44s-22-155 44-197z m-9 175c20 30 52 46 86 46 19 0 37-5 54-15 23-15 39-37 45-64s1-53-14-76c-14-23-37-39-63-45s-54-1-77 14c-47 30-61 92-31 140z m-302 65c14 0 27 6 38 16s15 24 15 38-5 28-15 38c-11 10-24 16-38 16s-28-6-38-16c-11-10-16-23-16-38s5-28 16-38c10-10 23-16 38-16z m-9 63c2 2 5 3 8 3s7-1 9-3 4-6 4-9-2-6-4-8c-2-3-5-4-9-4s-6 1-8 4c-2 2-4 5-4 8s2 7 4 9z m223 152c14 0 28 5 38 15s16 24 16 38-6 28-16 38c-10 11-24 16-38 16s-28-5-38-16c-10-10-16-23-16-38s6-27 16-38c10-10 23-15 38-15z m-9 62c2 2 6 4 9 4s6-2 8-4 4-5 4-9-1-6-4-8c-2-2-5-4-8-4s-7 2-9 4c-2 2-3 5-3 8s1 7 3 9z" horiz-adv-x="1000" />

<glyph glyph-name="browser" unicode="&#xe811;" d="M969 819h-938c-17 0-31-14-31-31v-876c0-17 14-31 31-31h938c17 0 31 14 31 31v876c0 17-14 31-31 31z m-31-875h-875v625h875v-625z m0 687h-875v125h875v-125z m-844 94h62v-62h-62v62z m94 0h62v-62h-62v62z m656 0h62v-62h-62v62z m-531-250h-125c-18 0-32-14-32-31v-125c0-17 14-31 32-31h125c17 0 31 14 31 31v125c0 17-14 31-31 31z m-32-125h-62v63h62v-63z m32-125h-125c-18 0-32-14-32-31v-125c0-17 14-31 32-31h125c17 0 31 14 31 31v125c0 17-14 31-31 31z m-32-125h-62v63h62v-63z m125 375h188v-62h-188v62z m0-125h438v-62h-438v62z m0-125h188v-62h-188v62z m0-125h438v-62h-438v62z" horiz-adv-x="1000" />

<glyph glyph-name="cabrio-car" unicode="&#xe812;" d="M255 279c0 41-33 74-73 74s-74-33-74-74c0-3 1-6 1-9 5-36 35-64 73-64 38 0 70 29 73 67 0 2 0 4 0 6z m-110 28l15-15c-1-2-2-4-3-7h-21c1 8 4 16 9 22z m-9-34h21c1-3 2-5 3-7l-15-15c-5 7-8 14-9 22z m39-39c-8 1-15 4-21 8l15 15c2-1 4-2 6-2l0-21z m0 70c-2-1-4-2-6-3l-15 15c6 4 13 8 21 9v-21z m13 21c8-1 15-5 21-9l-15-15c-2 1-4 2-6 3v21z m0-91v21c2 0 4 1 6 2l15-14c-6-5-13-8-21-9z m30 17l-15 15c2 2 2 4 3 7h21c-1-8-4-16-9-22z m-12 34c0 3-1 5-3 7l15 15c5-6 8-14 9-22l-21 0z m572 68c-40 0-73-33-73-74 0-3 0-6 1-9 4-36 35-64 72-64 39 0 70 29 73 67 1 2 1 4 1 6 0 41-33 74-74 74z m-36-46l15-15c-2-2-2-4-3-7h-21c1 8 4 16 9 22z m-9-34h21c1-3 2-5 3-7l-15-15c-5 6-8 14-9 22z m39-39c-8 1-15 4-21 8l15 15c2-1 4-2 6-2l0-21z m0 70c-2-1-4-2-6-3l-15 15c6 4 13 8 21 9v-21z m13 21c8-1 15-5 21-9l-15-15c-2 1-4 2-6 3v21z m0-91v21c2 0 4 1 6 2l15-14c-6-5-13-8-21-9z m30 17l-15 15c1 2 2 4 3 7h21c-1-8-4-16-9-22z m-12 34c-1 3-2 5-3 7l15 15c5-6 8-14 9-22h-21z m182 81c-84 73-184 76-184 76l-58 18c-8 3-17-2-19-10l-5-14-106-8-2 21c-1 7-7 12-13 11l-7 0c-7 0-13-6-13-12v-24l-159-8c3 12-4 19-4 19l66 32c4 2 6 6 6 10s-2 9-6 11l-8 4c-5 3-11 3-16 1-25-9-97-38-170-73-108-7-228-28-257-47s-32-42-29-65c3-35 29-63 63-69l48-8 1 0c-8 11-13 24-14 38-1 3-1 7-1 10 0 46 37 84 84 84s83-38 83-84c0-2 0-5 0-7-1-14-6-28-14-39l455 4c-6 10-9 20-11 32 0 3 0 7 0 10 0 46 37 84 83 84s84-38 84-84c0-2 0-5 0-7-1-10-4-20-8-29l103 4 7 8c17 19 30 43 35 68 3 16-2 33-14 43z" horiz-adv-x="1000" />

<glyph glyph-name="car-black-side-view-pointing-left" unicode="&#xe813;" d="M175 318c-40 0-72-32-72-72 0-3 0-6 1-9 4-35 34-62 71-62 37 0 68 29 71 65 0 2 0 4 0 6 0 40-32 72-71 72z m-36-45l14-14c-1-2-2-4-2-7h-21c1 8 4 15 9 21z m-9-33h21c1-2 1-4 3-6l-15-15c-5 6-8 13-9 21z m38-38c-7 1-14 4-20 9l14 14c2-1 4-2 6-2l0-21z m0 68c-2 0-4-1-6-2l-14 14c6 5 13 8 20 9v-21z m13 21c8-1 15-4 21-9l-15-14c-2 1-4 2-6 2v21z m0-89v21c2 0 4 1 6 2l15-15c-6-4-13-7-21-8z m29 17l-14 15c1 2 2 4 2 6h21c-1-8-4-15-9-21z m-12 33c0 3-1 5-2 7l14 14c5-6 8-13 9-21h-21z m595 70c-40 0-72-32-72-71 0-3 0-6 1-9 4-35 34-63 71-63 37 0 68 29 71 66 0 2 0 4 0 6 0 39-32 71-71 71z m-36-44l14-15c-1-2-2-4-2-6h-21c1 8 4 15 9 21z m-9-33h21c1-3 1-5 3-7l-15-14c-5 6-8 13-9 21z m38-39c-7 2-14 5-20 9l14 15c2-2 4-2 6-3v-21h0z m0 69c-2-1-4-2-6-3l-14 15c6 4 13 7 20 8v-20z m13 20c8-1 15-4 21-8l-15-15c-2 1-4 2-6 3v20z m0-89v21c2 1 4 2 6 3l15-15c-6-4-13-7-21-9z m29 18l-14 14c1 2 2 4 3 7h20c-1-8-4-15-8-21z m-12 33c0 2-1 4-2 6l15 15c4-6 7-13 8-21h-20z m171 55l-5 2v55c0 13-4 27-11 38l-42 61c-15 22-38 36-64 40-85 11-286 33-419-1-99-25-217-100-217-100s-152-25-185-43c-26-14-41-32-44-58-1-12 1-29 4-42 3-16 16-29 32-32l55-10c-1 4-2 9-3 13 0 4 0 8 0 11 0 48 39 87 87 87s87-39 87-87c0-2-1-5-1-7 0-6-2-12-3-18h453c-2 6-4 12-5 19 0 4 0 7 0 11 0 48 39 87 87 87s87-39 87-87c0-3-1-5-1-7 0-8-2-16-5-23h1l105 32c9 3 16 11 18 21l2 16c1 9-4 18-13 22z m-300 191v-87l-125-6v94c0 0 1 0 2 0 43 0 85 0 123-1z m-353-70v10c0 0 78 48 191 59l-11-95-180-9c0 0 9 4 9 23 0 0-1 9-9 12z m377-16v45l23-44-23-1z m177 14c-7-4-16-6-24-6l-103-5-43 81c79-3 138-9 150-12 18-5 35-30 34-43 0-6-7-11-14-15z" horiz-adv-x="1000" />

<glyph glyph-name="car-city-model" unicode="&#xe814;" d="M773 239c0-4 1-8 1-12 6-44 43-79 89-79 48 0 86 37 90 83 0 2 1 5 1 8 0 49-41 90-91 90-49 0-90-41-90-90z m146 7h-26c0 3-1 6-3 8l19 19c5-8 9-17 10-27z m-10-42l-19 19c2 2 3 5 3 8h26c-1-10-5-19-10-27z m-38 5c3 0 6 1 8 3l18-19c-7-5-16-9-26-10v26z m0 86c10-2 19-6 27-11l-19-19c-2 2-5 3-8 4v26z m-53-22l19-19c-2-2-3-5-4-8h-26c2 10 6 19 11 27z m38-4c-3-1-6-2-8-4l-19 19c8 5 17 9 27 11l0-26z m-27-76l19 19c2-2 5-3 8-3v-26c-10 1-19 5-27 11z m-22 38h26c1-3 2-6 4-8l-19-19c-5 8-9 17-11 27z m-701 8c0-4 0-8 0-12 6-44 44-79 90-79 47 0 86 37 90 83 0 2 0 5 0 8 0 49-40 90-90 90-50 0-90-41-90-90z m146 7h-26c-1 3-2 6-3 8l18 19c6-8 9-17 11-27z m-11-42l-19 19c2 2 3 5 4 8h26c-2-10-5-19-11-27z m-37 5c2 0 5 1 7 3l19-19c-8-5-17-9-26-10v26z m0 86c9-2 18-6 26-11l-18-19c-3 2-6 3-8 4v26z m-53-22l18-19c-1-2-3-5-3-8h-26c1 10 5 19 11 27z m37-4c-3-1-5-2-8-4l-18 19c7 5 16 9 26 11l0-26z m-26-76l18 19c3-2 5-3 8-3v-26c-10 1-19 5-26 11z m-22 38h26c1-3 2-6 3-8l-18-19c-6 8-10 17-11 27z m-140 55l11-55c2-13 13-22 26-22h52c-2 5-3 10-4 16 0 5-1 9-1 14 0 61 50 111 112 111s111-50 111-111c0-4 0-7 0-10-1-7-2-13-4-20h453c-1 5-2 10-3 16-1 5-1 9-1 14 0 61 50 111 111 111s112-50 112-111c0-4 0-7-1-10 0-7-1-14-3-20h13c0 0 22 72 14 105-6 25-21 36-21 36s1 37-19 76c-4 8-38 53-88 98-23 21-41 27-71 27-88 1-288 1-335 0-32 0-50-5-77-22-3-1-4-4-4-7s4-5 7-5h2l-89-87c0 0-35 0-46-1-58-2-162-11-225-59-9-6-14-16-16-26-1-14-2-30-2-30-10-5-16-16-13-28z m727 231h91c10 0 20-4 28-10 21-17 38-35 50-51 3-3 3-8 1-12s-5-6-9-6l-161-2 0 80z m-49 0h6v-82l-6 0v82z m-328-86l87 86h199v-82l-211-3c0 1 1 2 1 3 0 14-10 25-23 25s-22-11-22-25c0-2 0-3 0-4l-31 0z" horiz-adv-x="1000" />

<glyph glyph-name="car-muscle-design" unicode="&#xe815;" d="M183 363c-41-1-73-36-72-77 1-3 1-7 1-10 7-36 39-64 77-62 39 1 70 33 72 71 0 2 0 5 0 7-2 41-37 73-78 71z m-5-28l1-22c-3 0-5-1-7-3l-16 15c6 5 14 8 22 10z m-30-20l15-14c-1-2-2-5-2-7l-22-1c1 8 4 16 9 22z m-8-35l22 1c0-2 1-4 3-6l-15-16c-5 6-9 13-10 21z m19-30l15 16c2-1 4-2 7-2l0-22c-8 1-15 4-22 8z m73 47l-21-1c-1 2-2 4-3 6l14 16c5-6 9-13 10-21z m-41 38c8 0 16-3 22-8l-15-16c-2 1-4 2-6 3l-1 21z m3-92l0 21c2 1 4 2 6 3l16-15c-6-5-13-8-22-10z m31 19l-16 14c1 3 2 5 2 7l22 1c-1-8-4-16-8-22z m535 119c-42-2-74-36-72-78 0-3 0-6 1-9 6-37 38-64 77-62 39 1 70 32 71 71 0 2 0 4 0 6-1 42-36 74-77 72z m-6-29l1-21c-2-1-4-2-6-3l-16 14c6 6 13 9 21 10z m-30-19l16-15c-1-2-2-4-3-6l-21-1c1 8 4 16 8 22z m-8-35l22 1c1-3 2-5 3-7l-15-16c-5 6-8 14-10 22z m20-30l15 16c2-2 4-2 6-3l1-21c-8 0-16 3-22 8z m73 47l-22-1c0 2-1 4-3 6l15 16c5-6 8-13 10-21z m-42 38c8-1 16-4 22-8l-14-16c-2 1-5 2-7 2l-1 22z m4-93l-1 22c2 0 4 1 6 3l16-15c-6-5-13-8-21-10z m30 19l-16 15c1 2 2 4 3 7l21 1c-1-9-3-16-8-23z m198 73c-1 2-4 4-6 3l-12 0c0 0 6 29 8 43 0 2 0 3-1 5s-3 1-4 1c-39-1-204 35-255 73-6 4-12 7-19 7-39 4-118 2-150 1-10-1-19-3-27-8 0 0-78-47-106-58-48-20-159-14-190-12-39 2-103 4-172-45 0 0-33-9-59-23-3-2-6-6-6-10s2-9 5-11c4-3 6-3 6-3l2-7c3-13 13-24 26-30l24-10c13-5 28-8 43-9-2 5-4 10-4 16-1 3-1 7-2 10 0 23 8 45 23 62s37 26 60 27c47 2 87-35 89-82 0-2 0-5 0-7-1-10-3-20-7-29l20-1 413-4c-10 11-17 25-20 41 0 4-1 7-1 11-1 23 7 45 23 61s36 27 59 28c48 1 87-36 89-82 0-3 0-5 0-8 0-8-2-17-5-24l81 2c2 0 4 1 5 2l19 22 21 1c2 0 5 1 6 3l24 36c1 3 1 5 0 8z m-343 72l-2-1c-5-1-10-4-14-9-18-11-104-11-161-5l66 54c3 3 7 4 12 5l96 1c6 0 11-4 11-10l0-25c1-5-3-9-8-10z" horiz-adv-x="1000" />

<glyph glyph-name="car-of-hatchback-model" unicode="&#xe816;" d="M160 314c-44 0-79-35-79-79 0-3 0-6 1-10 4-39 38-69 78-69 41 0 75 32 79 73 0 2 0 4 0 6 0 44-35 79-79 79z m-40-49l16-16c-1-2-2-5-2-7h-23c1 9 4 16 9 23z m-9-37h23c0-2 1-4 3-7l-17-16c-5 7-8 15-9 23z m42-42c-8 1-16 5-23 10l16 16c2-2 5-2 7-3v-23z m0 76c-2-1-5-2-7-3l-16 16c7 5 15 8 23 9v-22z m14 22c8-1 16-4 23-9l-16-16c-2 1-5 2-7 3v22z m0-98v23c2 1 5 1 7 3l16-16c-7-5-15-9-23-10z m33 19l-17 16c2 3 3 5 3 7h23c-1-8-5-16-10-23z m-14 37c0 2-1 5-3 7l17 16c5-7 8-14 9-23l-23 0z m639 72c-44 0-79-35-79-79 0-3 0-6 1-10 5-39 38-69 78-69 41 0 75 32 79 73 0 2 0 4 0 6 0 44-35 79-79 79z m-40-49l17-16c-2-2-3-5-3-7h-23c1 9 4 16 9 23z m-9-37h23c0-2 1-4 3-7l-17-16c-4 7-8 15-9 23z m42-42c-8 1-16 5-23 10l16 16c2-2 5-2 7-3v-23z m0 76c-2-1-5-2-7-3l-16 16c7 5 15 8 23 9v-22z m14 22c9-1 16-4 23-9l-16-16c-2 1-5 2-7 3v22z m0-98v23c2 1 5 1 7 3l16-16c-7-5-15-9-23-10z m33 19l-17 16c2 3 3 5 3 7h23c-1-8-4-16-9-23z m-14 37c0 2-1 5-2 7l16 16c5-7 8-14 9-23l-23 0z m142 97l-15 15 0 46c0 12-4 23-12 32l-56 62c-1 13-10 24-23 27-66 12-274 45-437 0-102-27-205-81-205-81s-178-23-221-79c-15-19-21-45-24-68-3-32 18-61 50-69l16-3c0 1 0 1 0 2-1 5-1 9-1 12 0 53 43 95 95 95s95-42 95-95c0-2 0-5 0-8-1-3-1-6-2-9l479-1c0 2-1 4-1 6 0 5-1 9-1 12 0 53 43 95 95 95s95-42 95-95c0-2 0-5 0-8-1-3-1-7-2-11l7 0 27 15c28 16 46 45 48 78l0 14c0 6-2 12-7 16z m-653 94l7 29c0 0 111 58 297 52v-86l-298-24c0 0 2 19-6 29z m476 8l-140-11v82c46-3 96-10 150-23 5-2 10-6 11-11s1-11-3-15l-18-22z" horiz-adv-x="1000" />

<glyph glyph-name="car-painting" unicode="&#xe817;" d="M631 206c10 0 19 9 19 20s-9 19-19 19h-19v24c0 11-9 20-19 20h-114c-11 0-19-9-19-20v-4h-17l-37 104 76 97c4 5 6 12 4 18l-114 353c-2 4-5 9-10 11s-10 3-15 1l-285-92c-5-2-9-5-11-10s-3-10-1-14l113-353c2-6 7-11 14-13l119-34 24-68h-63c-20 0-38-9-51-23h-64c-11 0-20-9-20-19s9-20 20-20h45l-108-328c-2-6-1-12 3-17s10-8 16-8c88 0 166 56 194 140l38 116c5 14 17 25 31 28 5-53 28-102 66-141l12-11c4-4 9-6 13-6s10 2 14 6c8 7 8 20 0 27l-12 12c-31 31-49 71-54 114h60v-4c0-11 8-20 19-20h114c10 0 19 9 19 20v24h18c11 0 20 8 20 19s-9 19-20 19h-18v13h18z m-290 600l9-27-249-80-8 27 248 80z m-144-404l-84 260 249 80 83-260-72-93-63-20-113 33z m139-66l36 12 29-83h-40l-25 71z m-81-334c-20-59-70-101-130-111l81 244h95c-3-5-5-11-7-17l-39-116z m-36 172l10 32c4 12 15 20 28 20h203v-52h-241z m354-24h-74v100h74v-100z m370-99l-220 149 220 149c9 6 11 18 5 27s-18 11-27 5l-243-165c-5-4-9-10-9-16s4-13 9-16l243-165c3-3 7-4 11-4 6 0 12 3 16 9 6 9 4 21-5 27z" horiz-adv-x="1000" />

<glyph glyph-name="car-suv" unicode="&#xe818;" d="M991 325l-7 1c3 94-12 113-29 170h9c5 0 8 4 8 8v9c0 4-3 8-8 8h-551c-8 0-16-3-23-7l-167-98c0 0-167-7-193-33-13-13-25-38-29-68s7-61 13-67c7-7 17-10 17-10l4-8c3-5 8-8 14-8l27 1v74c0 29 23 52 52 52h71c25 0 46-21 46-46v-76l1 0 436 6 7 0v64c0 29 23 52 52 52h71c25 0 46-21 46-46v-83l60 12c3 1 6 3 7 6l5 9 61 8c5 0 9 5 9 10v50c0 5-4 9-9 10z m-524 86c-2-2-3-2-5-2h-133c0 0 8 4 12 10s2 20-3 25c-4 4-13 7-13 7l67 41c4 3 9 4 14 4h57c1 0 3-1 5-2s2-3 2-5l-1-73c0-2-1-4-2-5z m167 6c-5-6-11-9-18-9l-107-2c-2 0-4 0-5 2s-2 3-2 5v76c0 4 3 7 7 7h118c4 0 7-3 7-6l5-54c1-7-1-14-5-19z m314 0c0-1-1-2-3-2l-216-2c-9 0-18 5-23 13l-22 61c-1 2-1 4 0 6s4 3 6 3h229c3 0 6-2 7-5l23-71c0-1 0-2-1-3z m-788-83c-42 0-77-35-77-77 0-4 0-7 1-10 4-38 37-68 76-68 41 0 74 32 77 71 0 2 0 4 0 7 0 42-34 77-77 77z m-39-48l16-16c-1-2-2-4-3-7h-22c1 9 5 16 9 23z m-9-36h23c0-3 1-5 2-7l-15-16c-5 7-9 14-10 23z m41-41c-8 1-15 4-22 9l16 16c2-2 4-2 6-3v-22z m0 73c-2 0-4-1-6-3l-16 16c6 5 14 8 22 10l0-23z m14 22c8-1 16-4 22-9l-15-16c-2 2-5 3-7 3l0 22z m0-95v22c2 1 4 1 7 3l15-16c-6-5-14-8-22-9z m32 18l-16 16c1 2 2 4 3 7h22c-1-9-4-16-9-23z m-13 36c-1 3-2 5-3 7l16 16c5-7 8-14 9-23h-22z m587 71c-42 0-77-35-77-77 0-4 0-7 1-10 5-38 37-68 76-68 41 0 74 32 77 71 0 2 0 4 0 7 0 42-34 77-77 77z m-38-48l15-16c-1-2-2-4-2-7h-23c2 9 5 16 10 23z m-10-36h23c0-3 1-5 2-7l-15-16c-5 7-9 14-10 23z m42-41c-9 1-16 4-23 9l16 16c2-2 4-2 7-3v-22z m0 73c-3 0-5-1-7-3l-16 16c6 5 14 8 23 10l0-23z m13 22c8-1 16-4 22-9l-15-16c-2 2-5 3-7 3l0 22z m0-95v22c2 1 5 1 7 3l15-16c-6-5-14-8-22-9z m32 18l-16 16c1 2 2 4 3 7h22c-1-9-4-16-9-23z m-13 36c-1 3-2 5-3 7l16 16c5-7 8-14 9-23h-22z" horiz-adv-x="1000" />

<glyph glyph-name="car" unicode="&#xe819;" d="M800 213c0-4 0-7 1-11 5-42 41-75 84-75 45 0 82 35 86 78 0 3 0 5 0 8 0 47-38 85-86 85s-85-38-85-85z m138 7h-24c-1 3-2 5-3 8l17 17c6-7 9-16 10-25z m-10-40l-17 18c1 2 2 5 3 7h24c-1-9-4-18-10-25z m-35 4c2 1 5 2 7 3l18-17c-8-5-16-9-25-10l0 24z m0 82c9-1 18-5 25-11l-18-17c-2 1-4 3-7 3l0 25z m-50-21l17-17c-1-3-2-5-3-8h-25c2 9 5 18 11 25z m35-4c-3 0-5-2-8-3l-17 17c7 6 16 10 25 11l0-25z m-25-71l18 17c2-1 4-2 7-3v-24c-9 1-18 5-25 10z m-21 35h25c1-2 2-5 3-7l-17-18c-6 8-9 16-11 25z m-739 8c0-4 1-7 1-11 5-42 41-75 85-75 45 0 81 35 85 78 0 3 0 5 0 8 0 47-38 85-85 85s-86-38-86-85z m139 7h-25c0 3-1 5-3 8l18 17c5-7 9-16 10-25z m-10-40l-18 18c1 2 3 5 3 7h25c-1-9-5-18-10-25z m-36 4c3 1 5 2 8 3l17-17c-7-5-16-9-25-10l0 24z m0 82c10-1 18-5 25-11l-17-17c-3 1-5 3-8 3l0 25z m-50-21l18-17c-2-3-3-5-4-8h-24c1 9 5 18 10 25z m35-4c-2 0-5-2-7-3l-18 17c8 6 16 10 25 11v-25z m-24-71l17 17c2-1 5-2 7-3v-24c-9 1-17 5-24 10z m-21 35h24c1-2 2-5 4-7l-18-18c-5 8-9 16-10 25z m-120-12l69 1c-1 2-1 4-1 5-1 5-1 10-1 14 0 58 47 106 106 106s106-48 106-106c0-3 0-6-1-9 0-2 0-4 0-7l496 8c0 3-1 5-1 8 0 58 48 106 106 106 54 0 98-40 105-91 6 13 12 31 10 48-5 33-34 65-35 82s5 29 1 52c-4 23-44 98-84 124-30 18-51 31-139 36-126 7-211-1-287-24-45-13-198-93-245-119-55-30-77-35-115-49-44-16-72-51-83-77s-19-59-7-108z m704 235l-13 111c73-1 148-7 155-32 4-15-16-51-40-62-18-8-47-11-102-17z m-355 16l8 24c98 53 149 72 271 72 6 0 11 0 17 0l-14-119c-128-12-279-21-279-21 12 25-3 44-3 44z" horiz-adv-x="1000" />

<glyph glyph-name="cat-type" unicode="&#xe81a;" d="M696 178h-379c0 0-1 0-1 0-12 0-22 10-22 22s10 21 22 21c0 0 1 0 1 0l0 0h381c12 0 21-9 22-21l0 0c0-12-11-22-24-22z m229 25h-29c-1 0-1 0-1 0-12 0-22 9-22 21s10 22 22 22c0 0 0 0 1 0l0 0h26c3 2 6 5 6 6l11 76c2 8-7 11-7 11l-230 39c-16 2-38 11-51 28l-87 119c-3 5-13 16-33 16h-315c-1 0-7-4-20-17l-1-2-136-157c-1-5-3-20 0-24l2-3 26-82c2-3 5-7 9-10l0 0h23c12 0 21-10 21-22s-9-21-21-21l0 0h-28c-24 0-45 32-48 43l-24 79c-8 19-8 57 8 73l137 158c10 10 29 31 52 31h316c0 0 1 0 1 0 28 0 52-14 67-35l0 0 88-120c5-4 12-8 20-10l0 0 233-38c11-1 24-10 33-21 7-9 11-21 11-33 0-3 0-7-1-10l0 0-11-75c-5-23-29-42-48-42z m-357 170h-341c-1 0-1 0-1 0-12 0-22 10-22 22s10 21 22 21c0 0 0 0 1 0l0 0h340c12 0 21-10 22-21l0 0c0-12-9-22-21-22z m221-277c-63 0-115 52-115 115s52 115 115 115c64 0 115-51 115-115v0c0-63-51-115-115-115h0z m0 184c-38 0-69-32-69-70s31-70 69-70c39 0 70 31 70 70v0c0 38-31 69-70 70l0 0z m-565-184c-64 0-115 52-115 115s51 115 115 115c63 0 115-51 115-115v0c0-63-52-115-115-115h0z m0 184c-39 0-70-32-70-70s31-70 70-70c38 0 69 31 69 70v0c0 0 0 0 0 0 0 38-31 70-69 70v0z" horiz-adv-x="1000" />

<glyph glyph-name="check" unicode="&#xe81b;" d="M375 176l441 442 59-59-500-500-232 232 58 59z" horiz-adv-x="1000" />

<glyph glyph-name="clicker" unicode="&#xe81c;" d="M823 541c-15 0-28-3-40-8-15 38-52 64-94 64-16 0-31-3-44-10-17 33-51 55-90 55-11 0-22-2-32-6v112c0 56-46 102-101 102s-101-46-101-102v-403l-73 84c-1 0-1 1-2 1-19 19-44 30-71 30 0 0-1 0-1 0-27 0-52-10-71-29-33-34-35-83-5-136 39-69 82-134 119-191 27-41 53-81 72-114 17-28 60-120 61-121 5-12 17-19 30-19h432c15 0 28 9 33 24 8 25 79 247 79 333v233c0 56-46 101-101 101z m-33-101c0 18 15 33 33 33s32-15 32-33v-233c0-57-44-211-68-289h-385c-14 30-41 84-54 107-20 34-46 74-74 117-37 56-79 120-117 187-10 17-19 41-6 54 6 6 15 9 23 9 9 0 17-3 23-9l132-151c9-11 24-14 38-9s22 17 22 32v493c0 19 15 34 33 34s32-15 32-34v-319c0-18 16-34 34-34s35 16 35 34v111c0 19 14 34 32 34s33-15 33-34v-155c0-19 15-34 34-34s34 15 34 34v111c0 18 15 33 33 33s33-15 33-33v-156c0-19 15-34 34-34s34 15 34 34v100z" horiz-adv-x="1000" />

<glyph glyph-name="close" unicode="&#xe81d;" d="M791 582l-232-232 232-232-59-59-232 232-232-232-59 59 232 232-232 232 59 59 232-232 232 232z" horiz-adv-x="1000" />

<glyph glyph-name="compare_arrows" unicode="&#xe81e;" d="M625 309l-166 166 166 166v-125h291v-82h-291v-125z m-250-43v125l166-166-166-166v125h-291v82h291z" horiz-adv-x="1000" />

<glyph glyph-name="coupe-car" unicode="&#xe81f;" d="M171 350c-41 0-75-34-75-75 0-3 0-6 1-9 4-37 36-66 74-66 39 0 72 30 75 69 0 2 0 4 0 6 0 41-33 75-75 75z m-37-47l15-15c-1-2-2-4-3-7h-21c1 9 4 16 9 22z m-10-35h22c1-2 2-4 3-6l-15-16c-5 7-8 14-10 22z m41-40c-9 1-16 5-22 9l15 16c2-2 4-2 7-3v-22z m0 72c-3-1-5-2-7-3l-15 15c6 5 13 8 22 10v-22z m13 22c8-2 15-5 22-10l-16-15c-2 1-4 2-6 3v22z m0-94v22c2 1 4 1 6 3l15-16c-6-4-13-7-21-9z m31 18l-16 16c1 2 2 4 3 6h22c-1-8-5-15-9-22z m-13 35c0 3-1 5-3 7l16 15c4-6 8-13 9-22l-22 0z m595 68c-41 0-75-33-75-74 0-4 1-7 1-10 5-37 36-65 74-65 39 0 71 30 74 68 1 2 1 4 1 7 0 41-34 74-75 74z m-37-46l15-15c-1-2-2-5-3-7h-21c1 8 4 16 9 22z m-9-35h21c1-2 2-4 3-6l-15-16c-5 7-8 14-9 22z m40-40c-9 1-16 5-22 9l15 15c2-1 4-2 7-2v-22z m0 71c-3 0-5-1-7-2l-15 15c6 5 13 8 22 9v-22z m13 22c8-1 15-4 21-9l-15-15c-2 1-4 2-6 3v21z m0-93v22c2 0 4 1 6 2l15-15c-6-4-13-8-21-9z m30 18l-15 16c1 2 2 4 3 6h21c-1-8-4-16-9-22z m-12 35c-1 2-2 5-3 7l15 15c5-6 8-14 9-22h-21z m184 46c-1 10-4 19-9 28l-4 6-18 46c-3 9-11 15-21 16-17 1-47 4-75 5-98 52-281 105-435 47-32-11-122-58-122-58s-148 4-252-33c-42-15-68-56-64-100 1-8 3-16 4-22 2-10 10-18 20-19l65-7c-4 8-7 18-8 28 0 4-1 7-1 11 0 50 41 91 91 91s91-41 91-91c0-3 0-5-1-8-1-11-4-22-8-31l457 0c-4 8-7 18-8 27-1 4-1 8-1 12 0 49 40 90 90 90s90-41 90-90c0-3 0-6 0-8-1-7-2-15-5-21l11 0 70 10c12 1 23 8 29 19l7 12c5 8 7 18 7 28l0 12z m-249 90h-344c0 0 2 8-7 18 0 0 88 56 224 42 37-4 83-6 145-39l-18-21z" horiz-adv-x="1000" />

<glyph glyph-name="cursor" unicode="&#xe820;" d="M990 4l-199 199 142 82c11 7 18 19 17 32s-9 24-21 28l-633 253c-13 5-27 2-36-8s-13-23-8-36l253-633c5-12 16-20 28-21s25 6 32 17l82 142 199-199c6-7 15-10 23-10s18 3 24 10l97 97c13 13 13 34 0 47z m-121-73l-206 206c-6 6-15 10-23 10-2 0-3 0-5 0-10-2-19-8-24-17l-70-120-198 497 497-198-120-70c-9-5-15-14-16-24s2-21 9-28l206-206-50-50z m-722 820c-13 13-34 13-47 0s-13-35 0-48l74-74c6-7 15-10 24-10s17 3 23 10c13 13 13 34 0 47l-74 75z m25-232c0 19-15 34-33 34h-105c-19 0-34-15-34-34s15-33 34-33h105c18 0 33 15 33 33z m-13-103l-75-74c-13-13-13-34 0-47 7-7 15-10 24-10s17 3 23 10l75 74c13 13 13 34 0 47s-34 13-47 0z m172 262c18 0 33 15 33 34v105c0 18-15 33-33 33s-34-15-34-33v-105c0-19 15-34 34-34z m127-43c8 0 17 3 23 9l75 75c13 13 13 34 0 47s-35 13-48 0l-74-74c-13-13-13-35 0-48 7-6 15-9 24-9z" horiz-adv-x="1000" />

<glyph glyph-name="damage" unicode="&#xe821;" d="M598 42c46 0 84 38 84 84s-38 85-84 85-85-38-85-85 38-84 85-84z m0 128c24 0 43-20 43-44s-19-43-43-43-44 19-44 43 20 44 44 44z m402 202c0 11-9 20-20 20h-209v62l57 43c11 9 25 13 39 13h113c11 0 20 9 20 21s-9 20-20 20h-113c-23 0-45-7-64-21l-182-139-3-1-72 170c-20 48-56 87-101 112-10 5-23 1-28-9s-1-22 9-28c37-19 66-52 83-91l67-161-196-35c-28-5-54-22-69-46l-13-19c-13-21-21-46-21-71 0-19 4-37 12-54 7-16 18-31 32-44l17-14c22-20 50-31 79-31h49c22-50 73-86 132-86s109 36 131 86h251c11 0 20 10 20 21s-9 20-20 20h-240c1 6 1 11 1 16 0 7-1 14-1 20h240c11 0 20 10 20 21s-9 20-20 20h-253c-23 49-72 82-129 82s-107-33-130-82h-146c-2 7-3 14-4 21h58c26 0 47 21 47 47s-21 46-47 46h-7c5 4 12 6 19 7l243 43h349c11 0 20 9 20 21z m-402-144c56 0 102-45 102-102s-46-102-102-102-103 46-103 102 46 102 103 102z m-143-118h-38c-19 0-38 7-52 20l-17 15c0 0-1 1-1 1h109c-1-6-1-13-1-20 0-5 0-11 0-16z m-73 145c0-4-3-6-6-6h-50c2 4 4 8 6 11h44c3 0 6-2 6-5z m348 137h-40l40 31v-31z m188-77c-11 0-20-9-20-21s9-20 20-20h55c11 0 20 9 20 20s-9 21-20 21h-55z m-598 61c13-7 28-11 44-11 47 0 86 39 86 86 0 33-18 62-46 76 6 14 8 29 8 44 0 69-56 125-125 125s-125-56-125-125c0-1 0-1 0-1-58-16-99-70-99-131 0-75 61-137 136-137 52 0 99 30 122 74z m-121-33c-52 0-95 43-95 96 0 44 30 82 71 92 4 1 20 3 24 3 29 0 56-12 74-34 4-5 10-8 16-8 4 0 9 2 13 5 8 7 10 20 2 29-25 30-61 48-101 49 2 44 39 80 84 80 47 0 84-38 84-84 0-16-4-31-12-44-4-6-4-13-1-19s8-11 14-12c22-4 37-23 37-45 0-25-20-45-45-45-14 0-28 6-36 17-5 6-13 9-21 8s-13-8-15-15c-11-43-49-73-93-73z m-65 307c0 37-30 67-67 67s-67-30-67-67 30-67 67-67 67 30 67 67z m-93 0c0 14 12 26 26 26s26-12 26-26-12-26-26-26-26 12-26 26z" horiz-adv-x="1000" />

<glyph glyph-name="dashboard" unicode="&#xe822;" d="M783 483c-8 0-16 0-24-1-44 99-144 168-259 168s-214-69-259-168c-8 1-16 1-24 1-120 0-217-97-217-216s97-217 217-217c58 0 113 24 154 65 39-20 83-32 129-32s90 12 129 32c41-41 97-65 154-65 120 0 217 97 217 217s-97 216-217 216z m-550-399v33c0 9-7 16-16 16s-17-7-17-16v-33c-38 4-73 19-101 42l30 29c6 6 6 17 0 24s-18 6-24 0l-29-30c-23 28-38 63-42 101h49c10 0 17 8 17 17s-7 16-17 16h-49c4 38 19 73 42 101l29-29c3-3 7-5 12-5s8 2 12 5c6 6 6 17 0 23l-30 30c32 26 73 42 118 42 4 0 8 0 12 0-8-27-12-54-12-83 0-98 49-184 124-235-30-28-67-44-108-48z m284 33v66c0 10-8 17-17 17s-17-7-17-17v-66c-56 4-107 27-147 62l46 46c7 7 7 17 0 24s-17 6-23 0l-47-47c-35 40-58 92-61 148h66c9 0 16 8 16 17s-7 16-16 16h-66c3 57 26 108 61 148l47-46c3-4 7-5 11-5s9 1 12 5c7 6 7 17 0 23l-46 47c40 35 91 57 147 61v-66c0-9 8-17 17-17s17 8 17 17v66c56-4 107-26 148-61l-47-47c-7-6-7-17 0-23 3-4 7-5 12-5s8 1 11 5l47 46c35-40 58-91 61-148h-66c-9 0-16-7-16-16s7-17 16-17h66c-3-56-26-108-61-148l-47 47c-6 6-17 6-23 0s-7-17 0-24l47-46c-41-35-92-58-148-62z m407 32l-29 29c-6 7-17 7-23 0s-7-17 0-23l29-29c-28-23-63-38-101-42v33c0 9-7 16-17 16s-16-7-16-16v-33c-41 4-78 20-108 48 75 51 124 137 124 235 0 28-4 56-12 83 4 0 8 0 12 0 45 0 86-16 118-43l-29-29c-7-6-7-17 0-23 3-3 7-5 11-5s9 2 12 5l29 29c23-28 39-63 42-101h-49c-9 0-17-7-17-16s8-17 17-17h49c-3-38-19-73-42-101z m-409 309c-3 5-9 9-15 9s-12-4-14-9c-9-15-53-94-53-125 0-36 30-66 67-66s67 30 67 66c0 31-44 110-52 125z m-15-158c-18 0-33 15-33 33 0 12 15 47 33 82 18-35 33-70 33-82 0-18-15-33-33-33z" horiz-adv-x="1000" />

<glyph glyph-name="delete" unicode="&#xe823;" d="M791 684v-84h-582v84h145l43 41h207l43-41h144z m-541-625v500h500v-500c0-45-39-84-84-84h-332c-45 0-84 39-84 84z" horiz-adv-x="1000" />

<glyph glyph-name="do_not_disturb_alt" unicode="&#xe824;" d="M500 16c184 0 334 150 334 334 0 74-27 147-72 205l-467-467c59-45 131-72 205-72z m-334 334c0-74 27-146 72-205l467 467c-58 45-131 72-205 72-184 0-334-150-334-334z m334 416c229 0 416-187 416-416s-187-416-416-416-416 188-416 416 188 416 416 416z" horiz-adv-x="1000" />

<glyph glyph-name="edit" unicode="&#xe825;" d="M640 539l-471-471c-14-13-14-36 0-49 7-7 16-10 25-10s17 3 24 10l471 470c14 14 14 36 0 50-14 14-36 14-49 0z m239-80c9 0 18 3 25 10l52 51c59 60 59 156 0 215l-71 70c-28 29-67 45-107 45s-79-16-108-45l-51-51c-14-14-14-36 0-50l236-235c6-7 15-10 24-10z m-159 297c15 16 36 24 58 24 22 0 43-8 58-24l70-70c32-32 32-84 0-116l-27-27-186 187 27 26z m-388-859l497 497c14 13 14 36 0 49s-36 14-50 0l-488-488-215-29 29 215 466 467c14 13 14 35 0 49s-36 14-50 0l-474-475c-5-5-9-12-10-20l-37-272c-1-11 3-22 10-30 7-6 16-10 25-10 2 0 3 0 5 1l272 36c8 1 15 5 20 10z" horiz-adv-x="1000" />

<glyph glyph-name="evacuator" unicode="&#xe826;" d="M989 436v15c0 18-8 35-22 46l-91 79c-11 10-25 15-40 15h-216c-14 0-27-4-37-13l-89-67-118-21c-17-3-32-13-41-27l-6-10c-8-12-12-25-12-40 0-10 2-20 7-30 4-9 10-18 18-25l8-7c13-11 29-17 46-17h19c6-12 15-23 26-30h-137v278c0 11-9 19-19 19h-206c-8 0-16-6-18-14l-60-221c-1-2-1-3-1-5v-152c0-10 9-19 19-19h57c-1-3-1-7-1-11 0-44 36-80 80-80s80 36 80 80c0 4 0 8-1 11h322c0-3 0-7 0-11 0-44 35-80 80-80s80 36 80 80c0 4-1 8-1 11h24c-1-3-1-7-1-11 0-44 36-80 80-80s80 36 80 80c0 4 0 8-1 11h32c11 0 19 9 19 19v76c0 10-8 19-19 19h-35c11 7 20 18 26 30h10c22 0 43 10 57 28 8 11 13 24 13 38 0 13-4 26-11 36z m-96 76h-38l-10 39c2-1 5-2 7-4l41-35z m-77 0h-101l10 41h81l10-41z m-210 36c4 3 9 5 14 5h66l-10-41h-118l48 36z m-163-177c0 23 19 42 43 42s42-19 42-42c0-24-19-42-42-42s-43 18-43 42z m-349 192h70v-152l-119-25 49 177z m61-426c-23 0-42 19-42 42s19 42 42 42 42-19 42-42c0-23-19-42-42-42z m0 122c-26 0-49-12-63-31h-54v54h32c10 0 19 8 19 19s-9 19-19 19h-32v25l149 32c9 2 15 10 15 19v167h64l0-335h-48c-15 19-37 31-63 31z m481-122c-24 0-43 19-43 42s19 42 43 42 42-19 42-42c0-23-19-42-42-42z m182 0c-23 0-42 19-42 42s19 42 42 42 42-19 42-42c0-23-19-42-42-42z m92 91h-29c-15 19-38 31-63 31s-49-12-63-31h-56c-15 19-38 31-63 31s-49-12-64-31h-269v38h607v-38z m-380 76c11 7 20 18 26 30h223c6-12 15-23 26-30h-275z m277 67c0 23 19 42 42 42s43-19 43-42c0-24-19-42-43-42s-42 18-42 42z m150 14c-6-9-17-13-27-13h0c-1 43-37 79-81 79s-79-36-80-79h-203c-1 43-37 79-81 79s-79-36-80-79h-9c-8 0-15 2-21 7l-8 8c-2 2-5 5-6 7h15c11 0 19 9 19 19s-8 19-19 19h-15c0 0 0 1 0 1l6 9c4 6 9 9 15 10l121 22h433l6-5c6-5 9-11 9-18v-21c0-5 1-10 5-13 4-5 6-11 6-17 0-6-2-11-5-15z" horiz-adv-x="1000" />

<glyph glyph-name="exhaust-pipe" unicode="&#xe827;" d="M822 567l-118 118 73 73c4 4 6 9 6 14s-2 10-6 14l-58 58c-8 8-20 8-28 0l-73-73-26 26c-8 8-20 8-28 0-7-7-8-19 0-27l-327-326c-7 7-19 7-27-1-7-7-7-20 0-28l72-72-41-42c-21-20-32-47-32-76s11-56 32-77l70-71c0 0 1 0 1-1s-1-1-1-1l-133-133c-8-8-8-20 0-28l58-58c4-4 9-6 14-6s10 2 14 6l144 144c20 20 31 47 31 76s-11 56-31 77l-71 71c-1 0-1 1 0 2l31 31 73-72c3-4 8-6 13-6s10 2 14 6c8 8 8 20 1 27l326 326c4-3 9-5 13-5 5 0 10 2 14 6 8 8 8 20 0 28z m-117 236l31-31-60-59-30 30 59 60z m-396-549c-16-16-16-42 0-58l71-71c27-27 27-71 0-98l-130-130-30 31 119 119c16 16 16 42 0 58l-71 71c-13 13-20 30-20 49s7 36 20 49l42 41 31-30-32-31z m132-14l-176 176 326 326 176-176-326-326z" horiz-adv-x="1000" />

<glyph glyph-name="eye" unicode="&#xe828;" d="M993 329c10 13 9 31-1 43-151 186-314 281-485 281-290 0-492-271-500-282-10-13-9-31 1-43 151-186 314-280 485-280 290 0 492 270 500 281z m-500-211c-142 0-281 78-413 232 52 61 216 233 427 233 142 0 281-79 413-233-52-61-216-232-427-232z m7 410c-98 0-178-80-178-178s80-178 178-178 178 80 178 178-80 178-178 178z m0-286c-59 0-108 49-108 108s49 108 108 108 108-49 108-108-49-108-108-108z" horiz-adv-x="1000" />

<glyph glyph-name="filter_list" unicode="&#xe829;" d="M250 309v82h500v-82h-500z m-125 291h750v-84h-750v84z m291-500v84h168v-84h-168z" horiz-adv-x="1000" />

<glyph glyph-name="gallery" unicode="&#xe82a;" d="M640 521c0-28-23-51-51-51s-51 23-51 51c0 29 23 52 51 52s51-23 51-52z m-590-597c0 0 0-1 0 0 0-1 0-1 0-1 1-2 2-4 3-6 0 0 1 0 1-1s0-1 0-2c0 0 1-1 1-1 1-1 2-2 3-3 0 0 1-1 1-1 1-1 1-1 2-2 0 0 0-1 0-1 1 0 2 0 3-1 0 0 0-1 0-1s1 0 1-1 3 0 3-1c1 0 1 0 2-1 1 0 1-1 1-1 3-1 5-1 7-1h839c18 0 32 14 32 32v837c0 18-14 32-32 32h-836c-18 0-32-14-32-32v-835c0-3 1-6 1-8 0-1 0-2 0-2z m838 40h-701l518 339 183-175v-164z m-776 772h776v-520l-158 150c-11 10-27 12-39 4l-148-98-103 104c-11 11-28 13-40 5l-288-181v536z m0-612l300 190 76-77-376-246v133z" horiz-adv-x="1000" />

<glyph glyph-name="garbage" unicode="&#xe82b;" d="M841 581c-19 0-35-16-35-35v-589c0-20-17-37-38-37h-537c-20 0-37 17-37 37v589c0 20-16 35-35 35-19 0-35-15-35-35v-588c0-60 48-108 107-108h537c60 0 108 48 108 108v588c0 20-16 35-35 35z m93 114h-213v40c0 64-52 115-115 115h-212c-64 0-115-51-115-115v-40h-213c-19 0-35-16-35-35s16-35 35-35h868c19 0 35 16 35 35 0 20-16 35-35 35z m-585 40c0 25 20 45 45 45h212c25 0 45-20 45-45v-40h-302v40z m186-695v441c0 19-16 35-35 35s-35-16-35-35v-441c0-19 16-35 35-35s35 16 35 35z m-155 0v441c0 19-16 35-35 35s-35-16-35-35v-441c0-19 16-35 35-35 19 0 35 16 35 35z m310 0v441c0 19-16 35-35 35s-35-16-35-35v-441c0-19 16-35 35-35s35 16 35 35z" horiz-adv-x="1000" />

<glyph glyph-name="gas-station" unicode="&#xe82c;" d="M616 733h-351c-16 0-30-13-30-29v-212c0-16 14-29 30-29h351c16 0 30 13 30 29v212c0 16-14 29-30 29z m-29-211h-293v152h293v-152z m342 142c-13 10-31 7-41-5l-80-104c-4-5-6-11-6-18 0-15 0-318 0-330h-39v555c0 49-40 88-88 88h-469c-48 0-88-39-88-88v-736h-29c-16 0-29-13-29-30v-117c0-16 13-29 29-29h703c16 0 29 13 29 29v117c0 17-13 30-29 30h-29v122h68c16 0 29 13 29 30v263h19c16 0 29 13 29 29v119l26 34c10 13 8 31-5 41z m-752 98c0 16 13 29 29 29h469c16 0 29-13 29-29v-736h-527v736z m586-795v-58h-645v58c69 0 578 0 645 0z m-422 434h-76c-16 0-30-13-30-30s14-29 30-29h76c16 0 29 13 29 29s-13 30-29 30z" horiz-adv-x="1000" />

<glyph glyph-name="hammer-and-wrench" unicode="&#xe82d;" d="M665 484l95-34c2 0 4-1 6-1 8 0 16 5 19 13l23 64c1 5 1 10-1 15s-6 8-11 9l-95 35c-10 3-21-2-25-12l-22-64c-2-5-2-10 0-15s6-8 11-10z m41 58l59-21-10-28-59 21 10 28z m-450-544c0-11-9-20-20-20s-20 9-20 20c0 11 9 20 20 20s20-9 20-20z m403 320l5 6c25 25 55 45 88 59l126 53c0 0 34 15 42 19 10 6 20 14 31 24 62 63 66 163 7 230-4 5-11 7-18 6s-12-6-14-13l-46-124-35 13 49 132c2 6 1 13-3 19s-11 8-18 7c-65-9-118-56-137-117l-79 29c-6 2-12 2-17-1s-8-8-9-14l-18-99c-9-46-29-89-59-125l-169 170 12 12c8 7 8 19 0 27l-13 13c39 47 89 50 125 42 8-1 16 2 20 9s4 16-1 22c-17 22-39 38-63 49-60 28-131 19-181-21l-11 10c-8 8-20 8-27 0l-117-117c-8-7-8-19 0-27 6-7 3-22-7-32s-25-14-32-7c-8 8-20 7-27 0l-57-57c-8-7-8-20 0-27l124-124c4-4 9-6 13-6s10 2 14 6l57 57c8 7 8 19 0 27-6 6-3 21 7 32s25 13 32 6c8-7 20-7 27 1l11 10 170-170-280-279c-13-14-21-32-21-52s8-38 21-52c15-14 33-21 52-21s37 7 52 21l279 280 300-300c4-4 9-6 14-6s10 2 14 6l67 67c3 3 5 8 5 14s-2 10-5 13l-300 300z m186 383l-36-96-37 13c11 38 38 68 73 83z m-396 30c3-1 6-3 9-4-39-5-74-24-101-56l-46 46c39 29 92 35 138 14z m-190-17l97-97-87-87-97 96 87 88z m-115-310l-97 97 29 30 97-97-29-30z m50 103c-7-7-12-15-16-23l-52 52c8 3 16 9 23 16 8 7 14 16 17 25l54-53c-10-4-18-9-26-17z m124 17l40 40 170-170-40-40-170 170z m-61-552c-6-7-15-11-24-11s-18 4-24 11c-14 13-14 35 0 48l355 356c45 45 75 102 87 164l14 77 219-81c10-4 21 1 25 11l40 107c23-48 14-108-25-147-8-9-16-14-23-19-4-2-40-18-40-18l-124-52c-38-16-72-38-100-67l-380-379z m621-8l-287 287 40 40 287-287-40-40z" horiz-adv-x="1000" />

<glyph glyph-name="hours" unicode="&#xe82e;" d="M904 321l52 7c25 3 44 24 44 50 0 28-23 50-51 50h-35c-22 0-40-13-48-33l-45 101c-1 0-1 0-1 1l-3 7c-19 41-56 71-99 81-2 0-4 1-6 1-2 50-21 97-55 134-7 8-19 8-27 1s-8-19-1-27c29-32 44-73 44-116 0-95-77-173-173-173s-173 78-173 173c0 76 48 140 116 164l-7-6c-9-6-10-18-3-27 3-5 9-7 15-7 4 0 8 1 11 4l63 49c5 4 8 11 7 17s-5 12-11 15l-72 34c-9 4-21 0-25-9s-1-21 9-26l11-5c-86-25-149-102-152-195-3 0-5-1-7-1-43-10-80-40-99-81l-49-109c-7 20-26 33-48 33h-35c-28 0-51-22-51-50 0-26 19-47 45-50l51-6-49-49c-24-24-35-58-31-91l17-118c4-30 20-57 42-75v-54c0-32 26-58 58-58h96c32 0 58 26 58 58v26h427v-26c0-32 26-58 57-58h96c32 0 58 26 58 58v54c22 18 38 45 42 75l17 118c5 33-7 67-31 91l-48 49z m-55-322h-698c-38 0-72 28-79 66h856c-7-38-41-66-79-66z m-124 166l20-62h-27l-19 62h26z m-66 0l19-62h-356l19 62h318z m-377-62h-27l20 62h26l-19-62z m-67 0h-149l-9 62h178l-20-62z m570 0l-20 62h178l-9-62h-149z m117 275c0 7 5 12 12 12h35c7 0 13-5 13-12 0-6-5-12-11-12l-49-6v18z m-148 147c-12 2-28 4-48 6 2 5 3 11 3 16 0 0 0 0 0 0 17-3 32-11 45-22z m-463 22c0 0 0 0 0 0 0-5 2-11 3-16-20-2-36-4-48-6 13 11 28 19 45 22z m-79-73c11 6 24 10 38 13 12 2 31 4 56 6 33-74 108-127 194-127s161 53 194 127c25-2 44-4 56-6 14-3 27-7 38-13l60-129h-695l59 129z m-174-96c0 7 6 12 13 12h35c7 0 12-5 12-12v-18l-49 6c-6 0-11 6-11 12z m97-72h730l61-60c12-12 19-27 20-43h-892c1 16 8 31 20 43l61 60z m113-371c0-11-8-19-19-19h-96c-11 0-19 8-19 19v32c12-4 24-6 37-6h97v-26z m638 0c0-11-8-19-19-19h-96c-10 0-19 8-19 19v26h97c13 0 26 2 37 6v-32z m-439 613c28 0 51 22 51 51v9c0 29-23 51-51 51s-51-22-51-51c0-10 9-19 19-19s19 9 19 19c0 7 6 13 13 13s13-6 13-13v-9c0-7-6-13-13-13-28 0-51-23-51-51v-22c0-11 9-19 19-19h64c10 0 19 8 19 19s-9 19-19 19h-45v3c0 7 6 13 13 13z m65 95l-10-76c0-6 1-11 5-15s9-7 14-7h45v-32c0-11 8-19 19-19s19 8 19 19v127c0 11-8 19-19 19s-19-8-19-19v-57h-23l7 55c2 10-6 20-16 21s-20-6-22-16z" horiz-adv-x="1000" />

<glyph glyph-name="info_outline" unicode="&#xe82f;" d="M459 475v84h82v-84h-82z m41-459c184 0 334 150 334 334s-150 334-334 334-334-150-334-334 150-334 334-334z m0 750c231 0 416-185 416-416s-185-416-416-416-416 186-416 416 186 416 416 416z m-41-625v250h82v-250h-82z" horiz-adv-x="1000" />

<glyph glyph-name="jeep-cabrio" unicode="&#xe830;" d="M978 483h-19c-12 0-21-10-21-22v-40l-69-1c-1 0-3 0-4 1s-2 3-2 4v52c0 46-37 83-82 83 0 0-113 0-157 0 0 14-11 25-25 25h-108c-25 0-49-14-60-36l-59-109c0 0-269-27-283-41s-17-40-17-40-13-3-21-16c-4-5-5-11-2-17s9-9 15-9v-14l-54-13c-6-1-15-12-7-27 12-23 63-23 63-23l24 77c5 14 18 24 32 25l90 6c13 0 26-6 32-18l73-125h298l90 129c6 10 17 15 28 16l92 2c15 0 28-9 34-23l28-73h67c12 0 22 10 22 22v11h2c12 0 22 10 22 22v150c0 12-10 22-22 22z m-527-47v29c0 5-4 8-8 8l-18 1 31 60c8 16 24 26 42 26h87c4 0 7-3 7-7v-117l-141 0z m381-12c0-3-3-5-6-5l-195-5c-1-1-3 0-4 1s-2 3-2 4l0 104c0 1 1 3 2 4s3 1 4 1h150c28 0 51-22 51-51v-53z m-656-115c-53 0-96-44-96-98 0-4 1-8 1-12 7-48 48-84 97-84 51 0 92 40 96 90 0 3 0 5 0 8 0 54-44 97-98 96z m-8-37l1-28c-4 0-6-2-9-3l-20 19c8 7 18 11 28 12z m-40-24l20-19c-1-3-2-6-3-9l-28 0c1 10 5 20 11 28z m-11-45l28 0c1-3 2-5 4-8l-20-20c-6 8-10 18-12 28z m24-40l20 20c2-1 5-2 8-3l0-28c-10 1-20 5-28 11z m97 58l-28 0c-1 3-2 6-4 8l20 20c6-8 10-17 12-28z m-53 52c11-2 20-6 29-12l-20-20c-3 2-6 3-9 4l0 28z m1-121l0 28c3 1 6 2 8 3l20-19c-8-6-17-11-28-12z m40 24l-20 19c2 3 3 6 4 9l28 0c-2-10-6-20-12-28z m545 133c-53 0-97-44-96-98 0-4 0-8 1-12 6-48 48-84 97-84 51 0 92 40 96 90 0 3 0 5 0 8 0 54-44 97-98 96z m-8-37l0-28c-3 0-5-2-8-3l-20 19c8 7 18 11 28 12z m-40-24l20-19c-1-3-3-6-3-9l-28 0c1 10 5 20 11 28z m-11-45l28 0c1-3 2-5 4-8l-20-20c-6 8-11 18-12 28z m24-40l20 20c2-1 5-2 8-3l0-28c-10 1-20 5-28 11z m96 58l-28 0c0 3-2 6-3 8l20 20c6-8 10-17 11-28z m-52 52c11-2 20-6 28-12l-19-20c-3 2-6 3-9 4l0 28z m1-121l0 28c3 1 6 2 8 3l20-19c-8-6-17-11-28-12z m40 24l-20 19c2 3 3 6 4 9l28 0c-2-10-6-20-12-28z" horiz-adv-x="1000" />

<glyph glyph-name="jeep" unicode="&#xe831;" d="M152 328c-59 0-106-48-106-107 0-5 0-9 1-13 6-53 51-94 105-94 56 0 102 43 106 98 1 3 1 6 1 9 0 59-48 107-107 107z m-40-77l16-16c-1-2-2-5-2-7h-23c1 9 4 17 9 23z m-10-37h24c0-3 1-5 3-7l-17-16c-5 6-8 14-10 23z m43-43c-8 2-16 5-23 10l16 16c2-1 5-2 7-3l0-23z m0 77c-2-1-5-2-7-3l-16 16c7 5 15 8 23 10v-23z m14 23c9-2 17-5 24-10l-17-16c-2 1-4 2-7 3v23z m0-100v23c3 1 5 2 7 3l16-16c-6-5-14-8-23-10z m33 20l-16 16c1 2 2 4 3 7h23c-1-9-5-17-10-23z m-13 37c-1 2-2 5-3 7l16 16c5-6 9-14 10-23h-23z m631 100c-59 0-106-48-106-107 0-5 0-9 1-13 6-53 51-94 105-94 56 0 102 43 106 98 1 3 1 6 1 9 0 59-48 107-107 107z m-40-77l17-16c-2-2-3-5-3-7h-23c1 9 4 17 9 23z m-9-37h23c0-3 1-5 3-7l-17-16c-5 6-8 14-9 23z m42-43c-8 2-16 5-23 10l16 16c3-1 5-2 7-3v-23h0z m0 77c-2-1-4-2-7-3l-16 16c7 5 15 8 23 10v-23z m14 23c9-2 17-5 24-10l-17-16c-2 1-4 2-7 3v23z m0-100v23c3 1 5 2 7 3l16-16c-6-5-14-8-23-10z m33 20l-16 16c1 2 2 4 3 7h23c-1-9-4-17-10-23z m-13 37c-1 2-2 5-3 7l16 16c5-6 9-14 10-23h-23z m-71 358l-286-4c-8 0-15-7-15-16 0-8 7-15 15-15 0 0 0 0 1 0l286 4c8 0 15 7 15 15s-8 16-16 16z m-113-362h-338c-8 0-15-7-15-16s7-15 15-15h338c9 0 16 7 16 15s-7 16-16 16z m343 89c-4 4-9 6-15 6h-18l-18 197c-1 11-10 19-21 19l-505-8c-7 0-15-4-20-10l-67-86-219-13c-12-1-23-7-29-17l-13-18c0 0-21-8-26-12-5-5-15-21-15-21-2-3-2-6-1-9s5-5 8-5v-19h-18c-11 0-19-8-19-19v-34c0-13 10-24 23-24h13l32 89c3 8 10 13 19 13h112c7 0 13-2 16-8l76-99h394l55 94c4 6 11 10 18 10h103c7 0 14-4 18-11l54-93h19c21 0 38 15 42 35l6 27c1 5-1 11-4 16z m-481 98h-116v36h-23l35 47c1 2 4 3 6 3l118 2v-52l-20-36z m193 0h-126v88l152 3v-65l-26-26z m64 0v91l131 2c2 0 4-2 4-4l6-89h-141z" horiz-adv-x="1000" />

<glyph glyph-name="jerrycan" unicode="&#xe832;" d="M756 533c7 9 5 22-4 29s-22 5-28-4l-97-126h-167l-97 126c-6 9-19 11-28 4s-11-20-4-29l99-128v-231l-99-128c-7-9-5-22 4-29 3-3 8-4 12-4 6 0 12 3 16 8l97 126h167l97-126c4-5 10-8 16-8 4 0 8 1 12 4 9 7 11 20 4 29l-99 128v231l99 128z m-139-345h-147v203h147v-203z m187 662h-346c-51 0-92-41-92-92v-29h-30c-7 0-15-1-22-2l-47 47 13 12c8 8 8 21 0 29s-21 8-29 0l-103-102c0 0 0 0 0 0l-27-27c-8-8-8-21 0-29 4-4 10-6 15-6s10 2 14 6l13 12 43-43c-3-10-4-21-4-31v-611c0-74 60-134 134-134h415c74 0 134 60 134 134v785c0 45-37 81-81 81z m-397-92c0 28 23 51 51 51h175c-9-8-18-17-26-28v0c-24-33-63-52-103-52h-97v29z m-215-60l46 47 33-33c-19-11-36-27-48-45l-31 31z m652-714c0-51-42-93-93-93h-415c-51 0-93 42-93 93v611c0 51 42 93 93 93h168c53 0 104 26 136 69 24 33 63 52 104 52h60c22 0 40-18 40-40v-785z" horiz-adv-x="1000" />

<glyph glyph-name="keyboard_arrow_down" unicode="&#xe833;" d="M309 524l191-192 191 192 59-59-250-250-250 250z" horiz-adv-x="1000" />

<glyph glyph-name="keyboard_arrow_right" unicode="&#xe834;" d="M357 168l192 192-192 191 59 59 250-250-250-250z" horiz-adv-x="1000" />

<glyph glyph-name="keyboard_arrow_left" unicode="&#xe835;" d="M643 180l-59-58-250 250 250 250 59-59-192-191z" horiz-adv-x="1000" />

<glyph glyph-name="line_style" unicode="&#xe836;" d="M125 684h750v-168h-750v168z m416-334v84h334v-84h-334z m-416 0v84h334v-84h-334z m666-334v84h84v-84h-84z m-166 0v84h84v-84h-84z m-166 0v84h82v-84h-82z m-168 0v84h84v-84h-84z m-166 0v84h84v-84h-84z m541 168v82h209v-82h-209z m-269 0v82h207v-82h-207z m-272 0v82h209v-82h-209z" horiz-adv-x="1000" />

<glyph glyph-name="keyboard_arrow_up" unicode="&#xe837;" d="M309 207l-59 59 250 250 250-250-59-59-191 192z" horiz-adv-x="1000" />

<glyph glyph-name="line_weight" unicode="&#xe838;" d="M125 684h750v-168h-750v168z m0-375v125h750v-125h-750z m0-293v43h750v-43h-750z m0 125v84h750v-84h-750z" horiz-adv-x="1000" />

<glyph glyph-name="link" unicode="&#xe839;" d="M709 559c115 0 207-94 207-209s-92-209-207-209h-168v80h168c70 0 129 59 129 129s-59 129-129 129h-168v80h168z m-375-250v82h332v-82h-332z m-172 41c0-70 59-129 129-129h168v-80h-168c-115 0-207 94-207 209s92 209 207 209h168v-80h-168c-70 0-129-59-129-129z" horiz-adv-x="1000" />

<glyph glyph-name="mail_outline" unicode="&#xe83a;" d="M500 391l334 209h-668z m334-291v416l-334-207-334 207v-416h668z m0 584c45 0 82-39 82-84v-500c0-45-37-84-82-84h-668c-45 0-82 39-82 84v500c0 45 37 84 82 84h668z" horiz-adv-x="1000" />

<glyph glyph-name="mechanic" unicode="&#xe83b;" d="M983-18c-2 1-4 1-7 1h-136v100h136c10 0 17 8 17 17 0 2-1 5-1 7-41 92-148 135-241 95-9-4-19-10-27-15v30h-34v-58c-12-13-22-27-30-42h-136v121l88 30c7 2 12 8 12 15v50h83c46 0 83-37 83-83h34c0 64-53 117-117 117h-117v56c52 29 84 84 84 144v83h83v33h-83v67c0 55-45 100-100 100h-134c-55 0-100-45-100-100v-67h-66c-10 0-17-7-17-16v-100c0-9 8-17 17-17h16v-83c0-6 3-11 8-14l50-33 18 27-42 29v74h17c6-53 36-101 83-127v-56h-117c-64 0-117-53-117-117h34c0 46 37 83 83 83h83v-50c0-7 5-13 12-15l88-30v-121h-136c-8 15-18 29-30 42v58h-34v-30c-84 55-198 31-253-54s-31-198 53-253c30-20 65-30 100-30 69 0 132 39 164 100h307c46-90 156-126 246-80 38 19 68 51 85 90 3 8 0 18-9 22z m-643 601h-50v67h50v-67z m250-288l-42-14 35 52h7v-38z m-133 72v41c33-10 67-10 100 0v-41h-100z m-83 383c0 37 30 67 66 67h134c36 0 66-30 66-67v-67h-266v67z m0-183v83h266v-83c0-74-59-134-133-134s-133 60-133 134z m50-272v38h7l35-52-42 14z m47 38h72l-36-53-36 53z m269-425c-23 16-42 39-54 65-2 6-8 10-15 10h-328c-7 0-13-4-15-10-33-76-122-110-198-77s-110 121-77 197c24 55 78 90 137 90 60 0 114-35 138-90 2-6 8-10 15-10h328c7 0 13 4 15 10 33 76 122 111 197 78 27-12 49-30 65-54h-124c-10 0-17-8-17-17v-133c0-10 7-17 17-17h124c-46-69-139-87-208-42z m-458 190l-83 50c-5 3-12 3-17 0l-84-50c-5-3-8-9-8-14l-1-106c0-6 3-12 9-15l85-44c5-3 11-3 16 0l83 50c5 3 8 8 8 14v100c0 6-3 12-8 15z m-25-105l-67-41-68 36 2 86 66 40 67-40v-81z m83 57h334v-33h-334v33z m150 567h34v-84h-34v84z m67-434h100v-33h-100v33z" horiz-adv-x="1000" />

<glyph glyph-name="microbus" unicode="&#xe83c;" d="M1000 244c0 4-3 7-7 7l-14 2 0 14 6 6c4 3 6 7 6 12l-1 43c0 8-6 15-14 16 0 0-7 165-42 195-37 34-672 38-809 9-11-3-22-9-29-17-29-32-58-96-58-96s-17-5-24-29c-3-9-3-32-2-58l-1 0c-6 0-11-5-11-11l0-25c1-3 2-5 4-7s5-4 8-4l2 0c1-13 1-26 2-37 2-22 20-39 41-39l70 0 25 58c5 10 16 17 27 18l60 1c12 0 22-6 27-16l35-61 392 1 32 60c5 10 16 16 27 16l57 0c12 0 22-6 27-16l49-90 60 1c11 0 20 6 24 16l26 10c3 1 5 4 5 8l0 13z m-900 190c-5-1-10 2-13 7s-4 10-2 15l25 57c2 5 7 8 13 8l9 0 1-87-33 0z m183 16c-1-7-7-13-14-13l-129-3-1 88 134 2c4 0 8-1 11-4s4-7 4-11l-5-59z m294-9c-3-3-7-4-10-4l-221 1c-7 0-14 6-14 14l-1 58c0 4 2 8 4 11s7 4 11 4l220-2c7 0 14-6 14-14l1-58c0-4-1-7-4-10z m297 1c-3-3-7-5-11-5l-233 1c-8 0-14 6-15 14l-1 58c0 4 2 8 5 11s6 4 10 4l207-2c15 0 29-11 32-27l9-42c1-4 0-8-3-12z m-663-156c-42-1-76-35-76-77 0-4 0-7 1-10 5-37 37-66 76-66 40 0 73 31 76 71 0 2 0 4 0 6 0 42-35 76-77 76z m-7-29l1-22c-3-1-5-2-7-3l-16 15c7 5 14 9 22 10z m-31-19l16-16c-2-2-2-4-3-6l-22-1c1 9 4 16 9 23z m-9-36l22 0c1-2 2-4 3-6l-15-16c-5 6-9 14-10 22z m19-31l15 16c3-2 5-2 7-3l0-22c-8 1-15 4-22 9z m76 45l-22 0c-1 3-2 5-3 7l16 16c4-7 8-14 9-23z m-41 41c8-1 16-4 22-9l-15-16c-2 1-5 2-7 3l0 22z m1-95l-1 22c3 1 5 2 7 3l16-16c-7-4-14-8-22-9z m31 19l-16 15c1 2 2 5 3 7l22 0c-1-8-4-16-9-22z m530 105c-42-1-76-35-75-77 0-4 0-7 1-10 5-37 37-66 76-66 40 0 72 31 75 71 0 2 1 4 1 6-1 42-35 76-78 76z m-6-29l0-22c-2-1-4-2-6-3l-16 15c6 5 14 9 22 10z m-31-19l15-16c-1-2-2-4-2-6l-22-1c1 9 4 16 9 23z m-9-36l22 0c0-2 1-4 3-6l-16-16c-5 6-8 14-9 22z m19-31l15 16c2-2 4-2 7-3l0-22c-8 1-16 4-22 9z m76 45l-22 0c-1 3-2 5-3 7l15 16c5-7 8-14 10-23z m-42 41c9-1 16-4 23-9l-16-16c-2 1-4 2-6 3l-1 22z m1-95l0 22c2 1 5 2 7 3l15-16c-6-4-14-8-22-9z m32 19l-16 15c1 2 2 5 3 7l22 0c-1-8-4-16-9-22z" horiz-adv-x="1000" />

<glyph glyph-name="mini-van" unicode="&#xe83d;" d="M187 293c-43-1-76-35-76-78 0-3 0-6 1-9 5-38 37-67 76-67 40 1 73 32 76 71 0 2 0 5 0 7 0 42-35 76-77 76z m-7-30l1-22c-3 0-5-1-7-2l-16 15c7 5 14 8 22 9z m-31-18l16-16c-2-2-2-4-3-7l-22 0c1 8 4 16 9 22z m-9-36l22 0c1-2 2-5 3-7l-16-15c-4 6-8 13-9 22z m19-32l15 16c2-1 5-2 7-3l0-22c-8 1-16 5-22 9z m76 46l-22 0c-1 2-2 4-3 6l16 16c5-6 8-14 9-22z m-41 41c8-1 16-5 22-9l-15-16c-2 1-5 2-7 3l0 22z m1-95l-1 22c3 0 5 1 7 2l16-15c-7-5-14-8-22-9z m31 18l-16 16c1 2 2 4 3 7l22 0c-1-9-4-16-9-23z m601 106c-42-1-76-35-75-78 0-3 0-6 0-9 5-38 38-67 77-67 40 1 73 32 76 71 0 2 0 5 0 7-1 42-35 76-78 76z m-6-30l0-22c-2 0-4-1-6-2l-16 15c6 5 14 8 22 9z m-31-18l15-16c-1-2-2-4-2-7l-22 0c1 8 4 16 9 22z m-9-36l22 0c0-2 1-5 3-7l-16-15c-5 6-8 13-9 22z m19-32l15 16c2-1 4-2 7-3l0-22c-8 1-16 5-22 9z m76 46l-22 0c-1 2-2 4-3 6l15 16c5-6 8-14 10-22z m-42 41c9-1 16-5 23-9l-16-16c-2 1-4 2-6 3l-1 22z m1-95l0 22c2 0 5 1 7 2l15-15c-6-5-13-8-22-9z m32 18l-16 16c1 2 2 4 3 7l22 0c-1-9-4-16-9-23z m125 71l-10 4c0 0 1 218-47 284-8 12-363 34-492-19-54-21-216-131-216-131s-137-21-180-48c-19-15-31-45-31-45l-11-13c-3-3-5-7-5-11v-21c0-6 4-10 10-10v-36c-2 0-4-1-4-3s-1-4 0-5c4-3 23-6 38-7 13-2 55-6 55-6-1 4-2 8-2 13-1 4-1 7-1 11-1 51 40 92 91 93 51 0 92-41 92-91 0-3 0-5 0-8 0-6-1-11-3-16l462 5c0 2-1 4-1 6 0 4-1 7-1 11 0 51 41 92 91 93 51 0 93-41 93-91 0-3 0-5 0-8-1-3-1-6-1-8l59 5c10 1 19 9 20 19l2 20c1 6-3 11-8 13z m-471 145c-1-5-5-8-10-8h-147v16c0 11-8 21-18 23l1 17c0 0 67 51 179 53 3 0 6-1 8-3s3-6 2-9l-15-89z" horiz-adv-x="1000" />

<glyph glyph-name="minivan-car" unicode="&#xe83e;" d="M192 306c-42 0-76-34-76-76 0-3 0-6 1-9 4-38 36-67 75-67 40 0 73 31 76 70 0 2 0 4 0 6 0 42-34 76-76 76z m-38-47l16-16c-2-2-3-4-3-6h-22c1 8 4 16 9 22z m-9-35h22c0-3 1-5 3-7l-16-16c-5 7-8 14-9 23z m41-41c-9 1-16 4-23 9l16 16c2-2 4-2 7-3v-22z m0 73c-3-1-5-2-7-3l-16 15c7 5 14 8 23 9v-21z m13 21c8-1 16-4 22-9l-16-15c-2 1-4 2-6 3v21z m0-94v22c2 1 4 1 6 3l16-16c-7-5-14-8-22-9z m31 18l-15 16c1 2 2 4 2 7h22c-1-9-4-16-9-23z m-13 36c0 2-1 4-2 6l15 16c5-6 8-14 9-22h-22z m627 69c-42 0-76-34-76-76 0-3 1-6 1-9 5-38 37-67 75-67 40 0 73 31 76 70 0 2 0 4 0 6 0 42-34 76-76 76z m-38-47l16-16c-1-2-2-4-3-6h-22c1 8 5 16 9 22z m-9-35h22c1-3 2-5 3-7l-16-16c-4 7-8 14-9 23z m41-41c-8 1-16 4-22 9l15 16c2-2 5-2 7-3v-22z m0 73c-3-1-5-2-7-3l-15 15c6 5 14 8 22 9l0-21z m13 21c8-1 16-4 22-9l-15-15c-2 1-5 2-7 3v21z m0-94v22c2 1 5 1 7 3l15-16c-6-5-14-8-22-9z m31 18l-15 16c1 2 2 4 3 7h22c-2-9-5-16-10-23z m-12 36c-1 2-2 4-3 6l15 16c5-6 8-14 10-22h-22z m127 131c-1 17-6 33-14 48l-55 96c-8 16-25 26-43 27-92 5-372 16-460-8-60-16-211-115-211-115s-166-25-198-101c0 0-13-8-16-28-1-11 2-27 6-40 3-15 16-26 30-28l72-12c-1 4-1 8-2 12 0 4-1 8-1 11 0 48 39 87 87 87s87-39 87-87c0-2 0-5 0-7-1-9-3-17-6-24l8-1 479 13c-1 3-1 6-2 8 0 4 0 8 0 11 0 48 38 87 86 87s87-39 87-87c0-2 0-5 0-7 0-2-1-3-1-5l42 9c17 3 29 18 28 36l-3 105z m-276 153l11-110-168-7v118c49 1 105 0 157-1z m-425-124l-17-1c-5-1-9 2-10 6s0 10 3 12c10 7 22 16 35 25v-28c-8-7-11-14-11-14z m41 25c-1 0-2 0-3 0v34c34 22 73 43 106 54 15 5 42 8 76 10v-117l-145-6c0 0-5 26-34 25z m586 11c-5-9-14-14-25-15l-119-5-10 107c49-2 90-3 111-5 9 0 18-6 23-14l20-39c5-9 5-20 0-29z" horiz-adv-x="1000" />

<glyph glyph-name="my_location" unicode="&#xe83f;" d="M500 59c162 0 291 129 291 291s-129 291-291 291-291-129-291-291 129-291 291-291z m373 332h86v-82h-86c-19-174-158-313-332-332v-86h-82v86c-174 19-312 158-332 332h-86v82h86c20 174 158 313 332 332v86h82v-86c174-19 313-158 332-332z m-373 125c92 0 166-74 166-166s-74-166-166-166-166 74-166 166 74 166 166 166z" horiz-adv-x="1000" />

<glyph glyph-name="oil" unicode="&#xe840;" d="M838 396h60c11 0 19 8 19 19v71c0 11-8 19-19 19h-258v17c0 40-32 73-72 73h-102v24h24c10 0 19 8 19 19v58c0 11-9 19-19 19h-134c-11 0-19-8-19-19v-58c0-11 8-19 19-19h24v-24h-102c-30 0-56-19-67-45-22 12-45 18-68 18-37 0-73-15-100-42-48-47-57-118-21-176l183-297v-49c0-11 8-19 19-19h397c11 0 19 8 19 19v49l198 343z m41 71v-33h-52c-7 0-13-4-17-10l-170-294v337h239z m-504 210h95v-20h-95v20z m43-58h9v-24h-9v24z m-213-365l-94 151c-14 23 0 40 6 46 7 8 17 12 26 12 6 0 13-2 20-7l42-26v-176z m-151 116c-26 42-19 94 16 129 20 20 46 31 73 31 19 0 39-6 56-17l6-4v-34l-21 14c-13 8-27 12-41 12-19 0-39-8-53-22-20-20-34-56-11-94l126-204v-55l-151 244z m548-347h-359v499c0 19 16 34 35 34h290c19 0 34-15 34-34v-499z m373 282l-48 47c-4 4-9 6-14 6s-10-2-13-6l-48-47c-16-17-25-38-25-62s9-44 25-61c17-17 39-25 61-25s45 8 62 25c16 17 25 38 25 61s-9 45-25 62z m-27-96c-19-19-50-19-69 0-9 9-14 22-14 34s5 25 14 35l34 34 35-34c9-10 14-22 14-35s-5-25-14-34z" horiz-adv-x="1000" />

<glyph glyph-name="old-pickup" unicode="&#xe841;" d="M998 388c-1 1-3 2-4 2l-440-1-8 91c-2 28-26 49-55 48l-125-6c-21-1-39-14-47-33l-22-58-209-11c-25-2-47-20-51-46l-19-109-10-8c-5-4-8-11-8-18s4-13 9-17l6-4c9-6 21-5 28 3l6 6c3 3 5 7 5 11 1 25 17 87 88 87 36 0 85-28 85-90 0-14 11-31 46-31h88c23 0 45 9 61 25l280-2c-6 47 29 98 84 98 87 0 89-96 135-96 3 0 15 0 15 0 27 0 50 22 50 50l0 98h8c3 0 6 3 6 6 0 2-1 3-2 5z m-514 50c0-8-7-14-15-14l-74-3-17 31c-2 5-9 7-14 5s-6-9-4-14l12-23-12-1c-4 0-8 2-11 5s-3 8-2 12l12 41c3 11 13 19 24 19l86 3c4 0 8-1 11-4s5-7 5-11l-1-46z m-344-132c-37-1-67-31-66-68 0-3 0-5 0-8 5-33 33-58 67-58 35 0 63 28 66 62 0 2 0 4 0 6 0 36-30 66-67 66z m-6-26l0-19c-2-1-4-1-5-2l-14 13c5 4 12 7 19 8z m-27-16l14-14c-2-2-2-4-3-6l-19 0c1 7 4 14 8 20z m-8-31l19 0c1-2 2-4 3-6l-14-14c-4 6-7 12-8 20z m17-28l13 14c2-1 4-2 6-2l0-20c-7 1-14 4-19 8z m66 40l-19 0c-1 2-2 4-3 6l14 13c4-5 7-12 8-19z m-36 35c7-1 14-3 19-8l-13-13c-2 1-4 2-6 2l0 19z m1-83l-1 20c2 0 4 1 6 2l14-13c-6-5-12-8-19-9z m27 17l-14 13c1 2 2 4 3 6l19 0c-1-7-4-14-8-19z m613 92c-37-1-66-31-66-68 0-3 0-5 1-8 4-33 33-58 67-58 35 0 63 28 66 62 0 2 0 4 0 6-1 36-31 66-68 66z m-5-26l0-19c-2-1-4-1-6-2l-14 13c6 4 13 7 20 8z m-28-16l14-14c-1-2-2-4-2-6l-20 0c1 7 4 14 8 20z m-8-31l20 0c0-2 1-4 2-6l-13-14c-4 6-7 12-9 20z m17-28l14 14c1-1 3-2 5-2l1-20c-8 1-14 4-20 8z m66 40l-19 0c0 2-1 4-2 6l13 13c5-5 7-12 8-19z m-36 35c8-1 14-3 20-8l-14-13c-1 1-3 2-5 2l-1 19z m1-83l0 20c2 0 4 1 6 2l13-13c-5-5-12-8-19-9z m28 17l-14 13c1 2 2 4 2 6l19 0c0-7-3-14-7-19z" horiz-adv-x="1000" />

<glyph glyph-name="person_add" unicode="&#xe842;" d="M625 266c111 0 334-55 334-166v-84h-668v84c0 111 223 166 334 166z m-375 168h125v-84h-125v-125h-84v125h-125v84h125v125h84v-125z m375-84c-92 0-166 74-166 166s74 168 166 168 166-76 166-168-74-166-166-166z" horiz-adv-x="1000" />

<glyph glyph-name="person_outline" unicode="&#xe843;" d="M500 309c111 0 334-57 334-168v-125h-668v125c0 111 223 168 334 168z m0 375c92 0 166-76 166-168s-74-166-166-166-166 74-166 166 74 168 166 168z m0-455c-123 0-254-61-254-88v-45h508v45c0 27-131 88-254 88z m0 375c-49 0-88-39-88-88s39-86 88-86 88 37 88 86-39 88-88 88z" horiz-adv-x="1000" />

<glyph glyph-name="person" unicode="&#xe844;" d="M500 266c111 0 334-55 334-166v-84h-668v84c0 111 223 166 334 166z m0 84c-92 0-166 74-166 166s74 168 166 168 166-76 166-168-74-166-166-166z" horiz-adv-x="1000" />

<glyph glyph-name="phone" unicode="&#xe845;" d="M275 401c61-117 159-215 276-276l92 92c11 12 29 16 43 10 46-16 97-23 148-23 23 0 41-18 41-41v-147c0-24-18-41-41-41-391 0-709 318-709 709 0 24 18 41 41 41h147c23 0 41-18 41-41 0-53 7-102 23-148 4-14 2-32-10-43z" horiz-adv-x="1000" />

<glyph glyph-name="pick-up" unicode="&#xe846;" d="M179 342c-44 0-79-35-79-79 0-4 0-7 0-10 5-39 39-70 79-70 42 0 76 32 80 73 0 2 0 4 0 7 0 44-36 79-80 79z m-40-49l17-17c-2-2-3-4-3-7h-23c1 9 4 17 9 24z m-9-37h23c0-3 1-5 3-7l-17-16c-5 6-8 14-9 23z m42-43c-8 1-16 5-23 10l16 16c3-1 5-2 7-3v-23z m0 76c-2 0-4-1-7-3l-16 17c7 5 15 8 23 9l0-23z m14 23c9-1 17-4 23-9l-16-17c-2 2-4 3-7 3l0 23z m0-99v23c3 1 5 2 7 3l16-16c-6-5-14-8-23-10z m33 20l-16 16c1 2 2 4 3 7h23c-2-9-5-17-10-23z m-13 37c-1 2-2 4-3 7l16 16c5-7 8-15 10-23l-23 0z m547 72c-44 0-80-35-80-79 0-4 1-7 1-10 5-39 38-70 79-70 42 0 76 32 79 73 0 2 1 4 1 7 0 44-36 79-80 79z m-40-49l16-17c-1-2-2-4-3-7h-22c1 9 4 17 9 24z m-9-37h23c0-3 1-5 2-7l-16-16c-5 6-8 14-10 23z m42-43c-9 1-16 5-23 10l16 16c2-1 5-2 7-3v-23z m0 76c-2 0-5-1-7-3l-16 17c7 5 14 8 23 9l0-23z m14 23c9-1 16-4 23-9l-16-17c-2 2-5 3-7 3l0 23z m0-99v23c2 1 5 2 7 3l16-16c-7-5-15-8-23-10z m33 20l-16 16c1 2 2 4 3 7h22c-1-9-4-17-9-23z m-13 37c-1 2-2 4-3 7l16 16c5-7 8-15 9-23l-22 0z m207 50h-16l-4 94c0 6-5 11-11 11l-216-2v78c0 7-6 13-14 13h-10c-7 0-13-6-13-13v-79l-29 0-6 69c-1 15-13 26-28 26h-263c-9 0-18-4-25-10l-88-85-170-18c-23-2-44-14-59-33l-18-22c-13-8-20-24-16-39l5-23c2-11 10-19 21-21l58-13c-1 4-1 7-1 10 0 52 43 95 95 95s96-43 96-95c0-3-1-6-1-8 0-1 0-2 0-2h384c0 3 0 7 0 10 0 52 42 95 95 95s95-43 95-95c0-3 0-6 0-8 0-1 0-2 0-2h48l44 24h47c7 0 13 6 13 13v17c0 7-6 13-13 13z m-654 97c0 0 6 14 0 29l35 43c2 3 5 4 8 4h105v-76l-148 0z m186 0v76h95c6 0 10-4 11-10l2-66h-108z" horiz-adv-x="1000" />

<glyph glyph-name="picture-sq" unicode="&#xe847;" d="M269 386c59 0 107 48 107 107 0 59-48 107-107 107s-107-48-107-107c0-59 48-107 107-107z m0 176c38 0 69-31 69-69s-31-69-69-69-68 31-68 69 30 69 68 69z m-250 288v-1000h962v1000h-962z m39-38h884v-514l-198 182c-4 3-9 5-14 5-5-1-10-3-13-7l-189-206-91 91c-7 8-19 8-26 1l-322-283h-31v731z m884-924h-884v154h884v-154z m-795 193l276 242 198-198c7-7 19-7 27 0s7 20 0 27l-93 93 177 193 210-193v-164h-795z" horiz-adv-x="1000" />

<glyph glyph-name="picture" unicode="&#xe848;" d="M983 747h-966c-9 0-17-8-17-18v-758c0-10 8-18 17-18h966c9 0 17 8 17 18v758c0 10-8 18-17 18z m-17-759h-931v724h931v-724z m-690 377c53 0 96 43 96 96 0 53-43 96-96 96s-96-43-96-96c0-53 43-96 96-96z m0 157c34 0 61-27 61-61s-27-62-61-62-62 28-62 62 28 61 62 61z m-155-465c4 0 8 1 11 4l281 248 178-178c7-6 18-6 24 0s7 18 0 25l-83 83 159 173 194-178c7-7 18-6 24 1s6 18-1 24l-207 190c-3 3-8 5-12 5-5-1-9-3-12-6l-169-185-82 82c-6 6-16 7-23 1l-294-259c-7-6-8-17-1-24 3-4 8-6 13-6z" horiz-adv-x="1000" />

<glyph glyph-name="pie-chart" unicode="&#xe849;" d="M865 325h-390v389c0 16-13 29-28 29-247 0-447-201-447-447s200-446 447-446 446 200 446 446c0 16-13 29-28 29z m-418-418c-215 0-390 175-390 389 0 206 159 375 361 389v-389c0-15 13-28 29-28h388c-14-202-183-361-388-361z m553 498c0 109-40 213-112 294-85 96-206 151-334 151-16 0-29-13-29-28v-418c0-16 13-29 29-29h418c15 0 28 13 28 29 0 0 0 1 0 1z m-418 27v360c101-7 196-54 264-131 56-64 90-144 96-229h-360z" horiz-adv-x="1000" />

<glyph glyph-name="piston" unicode="&#xe84a;" d="M438-31c0-35 28-63 62-63s62 28 62 63-28 62-62 62c-34 0-62-28-62-62z m86 0c0-14-11-25-24-25s-24 11-24 25 11 24 24 24c13 0 24-11 24-24z m-24 685c-31 0-56-26-56-57s25-56 56-56 56 25 56 56-25 57-56 57z m0-76c-10 0-19 9-19 19s9 19 19 19c10 0 19-9 19-19s-9-19-19-19z m179 272h-358c-10 0-18-8-18-19v-389c0-11 8-19 18-19h81c10 0 18 8 18 19 0 21 13 40 32 48l-11-389c0-20-16-35-35-35-11 0-19-8-19-19v-84c0-62 51-113 113-113s113 51 113 113v84c0 11-8 19-19 19-19 0-35 15-35 35l-11 389c19-8 32-27 32-48 0-11 8-19 19-19h80c10 0 18 8 18 19v389c0 11-8 19-18 19z m-19-38v-20h-320v20h320z m0-57v-24h-320v24h320z m-84-724v-68c0-41-34-75-76-75s-75 34-75 75v68c30 8 53 35 54 69l11 395h20l11-395c0 0 0 0 0 0 1-34 24-61 55-69z m39 430c-8 41-45 71-88 71h-54c-43 0-80-30-88-71h-45v233h320v-233h-45z" horiz-adv-x="1000" />

<glyph glyph-name="piston2" unicode="&#xe84b;" d="M500 117c-55 0-100-45-100-100 0-55 45-100 100-100s100 44 100 100c0 55-45 100-100 100z m0-167c-37 0-67 30-67 67s30 66 67 66c37 0 67-29 67-66s-30-67-67-67z m0 700c-28 0-50-22-50-50s22-50 50-50 50 22 50 50-22 50-50 50z m0-67c-9 0-17 8-17 17s8 17 17 17 17-8 17-17-8-17-17-17z m233 267h-466c-9 0-17-7-17-17v-450c0-9 8-16 17-16h74c7 0 14 5 16 11 12 38 39 70 74 88l-21-309c-78-50-100-153-50-231s153-99 230-49c78 50 100 153 50 230-13 20-30 37-50 50l-21 309c35-18 62-50 74-88 2-6 9-11 16-11h74c10 0 17 7 17 16v450c0 10-7 17-17 17z m-100-833c0-74-59-134-133-134s-133 60-133 134c0 47 25 92 67 115 5 3 8 8 8 14l23 333c3 0 6 1 8 2 2 0 4 1 6 1 14 2 28 2 42 0 2 0 4-1 6-1 2-1 5-2 8-2l23-333c0-6 3-11 8-13 42-24 67-68 67-116z m84 383h-46c-20 52-63 91-115 108-92 29-192-18-227-108h-46v283h434v-283z m0 317h-434v33h434v-33z m0 66h-434v34h434v-34z m-184-766c0-19-15-34-33-34s-33 15-33 34c0 18 15 33 33 33s33-15 33-33z" horiz-adv-x="1000" />

<glyph glyph-name="remove_circle" unicode="&#xe84c;" d="M709 309v82h-418v-82h418z m-209 457c231 0 416-185 416-416s-185-416-416-416-416 186-416 416 186 416 416 416z" horiz-adv-x="1000" />

<glyph glyph-name="remove" unicode="&#xe84d;" d="M791 309h-582v82h582v-82z" horiz-adv-x="1000" />

<glyph glyph-name="request" unicode="&#xe84e;" d="M842 850h-684c-11 0-20-9-20-20v-960c0-11 9-20 20-20h520c6 0 11 2 14 6l164 164c4 4 6 9 6 14v796c0 11-9 20-20 20z m-144-932l0 96 96 0-96-96z m124 518c-10 0-19-9-19-20s9-20 19-20v-342l-144 0c0 0 0 0 0 0-5 0-10-2-14-6s-6-9-6-14l0-144h-480v506h1c11 0 20 9 20 20s-9 20-20 20h-1v374h644v-374z m-187 284h-109c-11 0-20-8-20-19s9-20 20-20h109c11 0 20 9 20 20s-9 19-20 19z m128-91h-237c-11 0-20-9-20-20s9-20 20-20h237c11 0 20 9 20 20s-9 20-20 20z m0-92h-237c-11 0-20-9-20-20s9-20 20-20h237c11 0 20 9 20 20s-9 20-20 20z m-274-211h-236c-11 0-20-9-20-20s9-20 20-20h236c11 0 20 9 20 20s-9 20-20 20z m276-81h-512c-11 0-20-8-20-19s9-20 20-20h512c11 0 20 9 20 20s-9 19-20 19z m0-80h-512c-11 0-20-9-20-20s9-20 20-20h512c11 0 20 9 20 20s-9 20-20 20z m-297-138h-17c-11 0-20-9-20-20s9-20 20-20h17c11 0 20 9 20 20s-9 20-20 20z m-85 0h-130c-11 0-20-9-20-20s9-20 20-20h130c11 0 19 9 19 20s-8 20-19 20z m6 721c-10 11-24 17-39 17s-30-6-40-17c-10-11-15-26-14-40l2-39c1-16 10-32 23-40 9-6 19-9 29-9s19 3 28 9c13 8 22 24 23 40l3 39c1 14-5 29-15 40z m-25-38l-3-38c0-4-2-8-5-10-4-3-9-3-13 0-3 2-5 6-5 10l-3 38c0 4 1 8 4 11s7 4 11 4c4 0 7-1 10-4s4-7 4-11z m114-191l-5 24c-6 33-32 60-65 66-5 1-10 2-16 2h-13c-5 0-10-3-14-6-4-4-9-7-15-7s-12 3-16 7c-4 3-9 6-14 6h-13c-5 0-10-1-15-2-34-6-60-33-66-66l-4-24c-2-6 0-12 4-16s9-8 15-8h217c6 0 12 3 15 8s6 10 5 16z m-213 16l0 1c3 17 17 31 34 34 2 0 5 1 8 1h5c22-17 53-17 75 0h5c3 0 6-1 8-1 17-3 31-17 34-34l0-1h-169z m434-99h-25c-11 0-20-9-20-20s9-20 20-20h25c11 0 20 9 20 20s-9 20-20 20z m-74 0h-25c-11 0-20-9-20-20s9-20 20-20h25c11 0 20 9 20 20s-9 20-20 20z m-371 0h-25c-11 0-20-9-20-20s9-20 20-20h25c11 0 19 9 19 20s-8 20-19 20z m222 0h-24c-11 0-20-9-20-20s9-20 20-20h24c11 0 20 9 20 20s-9 20-20 20z m-74 0h-25c-11 0-20-9-20-20s9-20 20-20h25c11 0 20 9 20 20s-9 20-20 20z m371 0h-24c-11 0-20-9-20-20s9-20 20-20h24c11 0 20 9 20 20s-9 20-20 20z m-222 0h-25c-11 0-20-9-20-20s9-20 20-20h25c11 0 19 9 19 20s-8 20-19 20z m-223 0h-25c-11 0-20-9-20-20s9-20 20-20h25c11 0 20 9 20 20s-9 20-20 20z" horiz-adv-x="1000" />

<glyph glyph-name="rotate_left" unicode="&#xe84f;" d="M541 680c164-19 293-160 293-330s-129-310-293-330v84c119 20 209 123 209 246s-90 227-209 246v-162l-189 186 189 189v-129z m-246-594l61 61c31-24 66-37 103-43v-84c-59 8-115 29-164 66z m-41 223c6-37 20-72 41-103l-59-59c-37 49-58 103-66 162h84z m43 186c-22-32-37-67-43-104h-84c8 59 31 113 68 162z" horiz-adv-x="1000" />

<glyph glyph-name="rotate_right" unicode="&#xe850;" d="M703 206c24 31 37 66 43 103h84c-8-59-29-113-66-162z m-162-102c37 6 72 20 104 43l60-61c-49-37-105-58-164-66v84z m289 287h-84c-6 37-19 72-43 104l61 58c37-49 58-103 66-162z m-181 229l-190-186v162c-119-19-209-123-209-246s90-226 209-246v-84c-164 20-293 160-293 330s129 311 293 330v129z" horiz-adv-x="1000" />

<glyph glyph-name="sale" unicode="&#xe851;" d="M409 435c0-23-19-42-42-42s-42 19-42 42c0 23 19 42 42 42s42-19 42-42z m266-170c0-23-19-41-42-41s-42 18-42 41c0 23 19 42 42 42s42-19 42-42z m302 30l-15 21c-16 22-17 53 0 76l14 20c23 32 12 77-22 96l-23 12c-24 13-38 40-33 68l4 25c7 39-22 74-61 76l-26 1c-28 1-52 20-60 47l-7 24c-11 38-52 58-88 42l-24-10c-25-11-55-5-74 16l-17 19c-26 30-72 29-98 0l-16-20c-19-21-48-28-74-17l-24 10c-36 15-77-5-88-43l-7-25c-7-27-31-46-59-48l-25-1c-39-2-68-38-60-77l4-25c5-28-8-55-32-69l-22-12c-35-19-45-64-21-96l15-20c16-23 17-53 0-76l-14-21c-23-32-12-77 22-95l23-12c24-14 38-41 33-69l-4-25c-7-38 22-74 61-76l26-1c28-1 52-20 60-47l7-24c11-38 52-57 88-42l24 10c25 11 55 5 74-16l17-19c26-29 72-29 98 0l16 20c19 21 49 28 74 17l24-10c36-15 77 6 88 43l7 25c7 27 31 47 59 48l25 1c39 3 68 39 60 77l-4 25c-5 28 8 56 32 69l22 13c35 18 45 63 21 95z m-711 140c0 56 45 101 101 101s101-45 101-101-45-101-101-101-101 45-101 101z m120-260c-8-10-24-12-34-3v0c-11 8-12 24-3 34l264 319c9 10 24 12 35 3s12-24 3-34l-265-319z m247-10c-56 0-101 45-101 100s45 101 101 101 101-45 101-101-46-100-101-100z" horiz-adv-x="1000" />

<glyph glyph-name="schedule" unicode="&#xe852;" d="M522 559v-219l187-111-31-53-219 133v250h63z m-22-543c184 0 334 150 334 334s-150 334-334 334-334-150-334-334 150-334 334-334z m0 750c231 0 416-185 416-416s-185-416-416-416-416 186-416 416 186 416 416 416z" horiz-adv-x="1000" />

<glyph glyph-name="search" unicode="&#xe853;" d="M397 266c103 0 187 84 187 188s-84 187-187 187-188-84-188-187 84-188 188-188z m250 0l207-207-63-63-207 208v33l-12 11c-47-41-109-64-175-64-151 0-272 119-272 270s121 271 272 271 269-121 269-271c0-67-23-129-64-176l11-12h34z" horiz-adv-x="1000" />

<glyph glyph-name="sedan-car-model" unicode="&#xe854;" d="M175 323c-42 0-76-34-76-75 0-4 0-7 1-10 4-37 36-66 75-66 39 0 71 30 75 69 0 2 0 4 0 7 0 41-34 75-75 75z m-38-47l15-15c-1-2-2-5-3-7h-21c1 8 4 16 9 22z m-9-35h22c0-2 1-5 2-7l-15-15c-5 6-8 14-9 22z m40-40c-8 1-16 4-22 9l16 15c2-1 4-2 6-3v-21z m0 72c-2-1-5-2-7-3l-15 15c6 5 14 8 22 9v-21z m13 21c8-1 16-4 22-9l-15-15c-2 1-4 2-7 3l0 21z m0-93v21c2 1 5 2 7 3l15-15c-6-5-14-8-22-9z m31 18l-15 15c1 2 2 5 3 7h21c-1-8-4-16-9-22z m-12 35c-1 2-2 5-3 7l15 15c5-6 8-14 9-22h-21z m601 69c-41 0-75-34-75-75 0-4 0-7 0-10 5-37 37-66 75-66 40 0 72 30 75 69 0 2 1 4 1 7 0 41-34 75-76 75z m-38-47l16-15c-1-2-2-5-3-7h-22c1 8 5 16 9 22z m-9-35h22c1-2 2-5 3-7l-16-15c-4 6-8 14-9 22z m41-40c-9 1-16 4-22 9l15 15c2-1 4-2 7-3v-21z m0 72c-3-1-5-2-7-3l-15 15c6 5 13 8 22 9v-21z m13 21c8-1 15-4 22-9l-16-15c-2 1-4 2-6 3v21z m0-93v21c2 1 4 2 6 3l16-15c-7-5-14-8-22-9z m31 18l-16 15c2 2 3 5 3 7h22c-1-8-4-16-9-22z m-13 35c0 2-1 5-2 7l15 15c5-6 8-14 9-22h-22z m156 108v56c0 9-6 17-15 18-21 3-59 10-76 15-24 7-118 47-151 55s-179 47-320-2c-23-8-130-59-193-86-19 0-202-38-212-65s-13-39-14-45 0-39 13-61c14-8 41-13 72-16-1 1-1 3-1 5-1 4-1 8-1 12 0 50 41 90 91 90s90-40 90-90c0-3 0-6 0-8-1-6-2-11-3-16 0 0 0 0 0 0l450 9c0 1 0 2-1 3 0 4 0 8 0 12 0 50 40 90 90 90s91-40 91-90c0-1 0-1 0-1l2 0 77 15c0 0 29 15 29 59 0 28-18 41-18 41z m-446 53l-168-5c3 25-12 31-12 31 67 60 202 62 202 62l-22-88z m189 8l-153-5 13 85c80 1 125-16 125-16l22-37-7-27z m86 0h-43l-42 59c32-13 57-25 73-33 9-5 14-15 12-26z" horiz-adv-x="1000" />

<glyph glyph-name="send" unicode="&#xe855;" d="M84-25v291l625 84-625 84v291l875-375z" horiz-adv-x="1000" />

<glyph glyph-name="settings" unicode="&#xe856;" d="M949 455l-70 12c-8 24-17 46-29 68l42 58c17 25 15 58-7 79l-62 63c-12 11-27 18-44 18-13 0-25-4-35-12l-59-41c-22 12-46 22-70 29l-12 69c-5 30-31 52-61 52h-88c-30 0-56-22-61-52l-12-71c-23-7-46-17-68-28l-57 41c-11 8-23 12-36 12-17 0-32-7-44-19l-62-62c-22-21-24-55-7-79l42-59c-12-22-21-45-28-68l-69-12c-30-5-52-31-52-61v-88c0-30 22-56 52-61l71-12c7-24 17-46 28-68l-41-57c-17-25-15-59 7-80l62-62c12-12 27-18 44-18 13 0 25 4 36 11l58 42c21-11 43-20 66-27l12-70c5-30 31-52 61-52h88c30 0 56 22 61 52l12 70c24 7 46 16 68 28l58-41c10-8 23-12 36-12v0c16 0 32 6 44 18l62 63c21 21 24 54 6 79l-41 58c12 22 21 45 28 68l70 12c30 5 52 31 52 61v88c0 30-21 56-51 61z m-5-149c0-3-2-5-5-5l-87-15c-11-2-20-10-23-21-8-30-20-60-36-87-6-10-5-22 1-31l52-73c1-2 1-5-1-7l-62-62c-2-1-3-2-4-2-1 0-3 1-3 1l-73 52c-9 6-21 7-31 1-27-16-56-28-87-36-11-3-19-12-21-23l-15-87c0-3-2-5-5-5h-88c-3 0-5 2-5 5l-15 87c-2 11-10 20-21 23-30 8-58 20-85 35-5 3-10 4-15 4-5 0-11-2-16-5l-73-52c-1-1-2-2-3-2-1 0-3 1-4 2l-62 62c-2 2-2 5-1 7l51 73c7 9 7 21 2 30-17 28-29 57-37 88-3 10-12 19-23 20l-88 15c-3 1-5 3-5 6v88c0 3 2 5 5 5l87 15c11 2 20 10 23 21 8 31 19 60 36 88 5 9 5 21-2 30l-52 73c-1 2-1 5 1 7l62 63c1 1 3 1 4 1 1 0 2 0 3-1l72-51c9-7 21-7 31-1 27 16 57 28 87 36 11 3 19 12 21 23l15 88c0 3 3 5 5 5h88c3 0 5-2 6-5l14-87c2-11 11-20 21-23 32-8 62-20 90-36 10-6 22-6 31 1l72 52c1 0 2 1 3 1 1 0 2-1 4-2l62-62c2-2 2-5 1-7l-52-73c-6-9-7-21-1-31 16-27 28-56 36-87 3-11 12-19 23-21l88-15c2 0 4-2 4-5v-88h0z m-444 260c-119 0-216-97-216-216s97-216 216-216 216 97 216 216-97 216-216 216z m0-375c-88 0-159 71-159 159s71 160 159 160 160-72 160-160-72-159-160-159z" horiz-adv-x="1000" />

<glyph glyph-name="shopping_cart" unicode="&#xe857;" d="M709 100c45 0 82-39 82-84s-37-82-82-82-84 37-84 82 39 84 84 84z m-668 666h137l39-82h617c24 0 41-20 41-43 0-8-2-14-6-19l-148-270c-14-25-41-43-73-43h-310l-37-68-2-6c0-6 4-10 10-10h482v-84h-500c-45 0-82 39-82 84 0 14 4 27 10 39l56 104-150 316h-84v82z m250-666c45 0 84-39 84-84s-39-82-84-82-82 37-82 82 37 84 82 84z" horiz-adv-x="1000" />

<glyph glyph-name="skype" unicode="&#xe858;" d="M958 278c4 23 6 47 6 72 0 256-208 464-464 464-25 0-49-2-72-6-43 27-94 42-148 42-154 0-280-125-280-280 0-54 15-105 42-148-4-23-6-47-6-72 0-256 208-464 464-464 25 0 49 2 72 6 43-27 94-42 148-42 155 0 280 125 280 280 0 54-15 105-42 148z m-238-139c-19-28-48-50-86-66-38-16-82-24-134-24-61 0-113 11-153 33-29 15-52 36-70 62-18 27-27 52-27 77 0 15 6 28 17 38 11 11 25 16 42 16 14 0 26-4 35-12 10-9 18-21 24-36 8-19 17-34 26-46 9-12 21-22 38-30 16-8 38-12 65-12 37 0 67 8 90 24 23 16 34 35 34 59 0 19-6 34-18 45-13 12-29 21-48 27-20 6-47 13-80 20-45 10-83 21-113 34-31 14-55 32-73 54-18 23-27 52-27 85 0 33 10 61 29 86 19 25 46 45 82 58 36 13 77 20 126 20 38 0 71-4 99-13 29-9 52-21 71-36 18-14 32-30 41-46 8-17 13-33 13-48 0-15-6-28-17-39s-25-18-41-18c-15 0-27 4-35 11-7 7-16 18-24 33-12 22-25 39-41 51-15 12-40 18-75 18-32 0-58-7-78-20-19-13-29-28-29-46 0-11 4-21 10-29 7-8 16-15 27-21 12-6 24-10 36-14 12-3 32-8 60-15 36-7 67-16 96-25 29-9 53-21 73-34 20-13 36-30 48-51 11-20 17-45 17-74 0-36-10-68-30-96z" horiz-adv-x="1000" />

<glyph glyph-name="sort" unicode="&#xe859;" d="M125 309v82h500v-82h-500z m0 291h750v-84h-750v84z m0-500v84h250v-84h-250z" horiz-adv-x="1000" />

<glyph glyph-name="spark" unicode="&#xe85a;" d="M995 766l-59 60c-6 5-14 6-21 3l-57-34c-3-2-6-5-7-9l-14-42-42-14c-3-1-5-2-7-4l-28-28h-77c-4 0-8-2-11-5l-239-239-55 55c-6 7-17 7-23 0l-83-83c-7-6-7-17 0-24l21-21-38-38c-7-7-7-17 0-24l38-38-276-277c-23-22-23-58 0-80l55-55 23 24-55 54c-9 10-9 25 0 34l27 26 43-43-22-21 24-24 21 22 55-55c7-7 17-7 24 0l238 238 38-38c7-7 17-7 24 0l38 38 22-22c6-6 17-6 23 0l83 84c7 6 7 17 0 23l-54 55 238 238c3 4 5 8 5 12v77l28 28c2 2 3 4 4 7l14 42 42 14c4 1 7 4 9 7l34 57c4 6 3 15-3 20z m-545-375l110-110-60-60-110 110 60 60z m-83 83l59-60-59-59-60 59 60 60z m-167-553l-110 110 27 26 109-109-26-27z m50 50l-110 110 27 26 109-109-26-27z m50 50l-110 110 27 26 109-109-26-27z m50 50l-110 110 27 26 109-109-26-27z m50 50l-110 110 27 26 109-109-26-27z m100 0l-210 210 27 26 209-209-26-27z m143 77l-60-60-59 60 59 59 60-59z m190 323l-25-25-29 30-24-23 30-30-27-27-29 30-24-23 30-30-27-27-29 30-24-23 30-30-27-27-29 30-24-23 30-30-35-35-143 143 35 35 30-30 23 23-30 30 27 27 30-30 23 23-30 30 27 27 30-30 23 23-30 30 27 27 30-30 23 23-30 30 25 25h70l73-73v-70z m106 190l-44-14c-5-2-9-6-11-11l-15-46-19-19-60 60 19 19 46 15c5 2 9 6 11 11l15 44 40 23 41-41-23-40z" horiz-adv-x="1000" />

<glyph glyph-name="sportive-car" unicode="&#xe85b;" d="M217 345c-40 0-72-33-72-73 0-4 0-7 1-10 5-36 36-63 73-63 38 1 69 30 72 68 0 2 0 4 0 6 0 40-33 72-74 72z m-6-28l1-21c-3 0-5-1-7-2l-15 14c6 5 13 8 21 9z m-30-18l15-14c-1-2-2-5-2-7l-21 0c1 8 4 15 8 21z m-8-34l21 1c1-3 1-5 3-7l-15-15c-5 6-8 13-9 21z m18-30l15 15c2-1 4-2 6-2l0-21c-8 1-15 4-21 8z m72 44l-21 0c0 2-1 4-2 6l14 15c5-6 8-13 9-21z m-39 38c8-1 15-4 21-8l-14-15c-2 1-5 2-7 3l0 20z m1-90l0 21c2 1 4 2 6 3l15-15c-6-5-13-8-21-9z m30 18l-15 15c1 2 2 4 2 6l21 0c-1-8-4-15-8-21z m551 100c-41 0-73-33-73-73 1-4 1-7 1-10 5-36 36-63 73-63 38 1 69 30 72 68 0 2 0 4 0 6 0 40-33 72-73 72z m-6-28l0-21c-3 0-5-1-7-2l-15 14c6 5 14 8 22 9z m-30-18l15-14c-2-2-2-5-3-7l-21 0c1 8 4 15 9 21z m-9-34l21 1c1-3 2-5 3-7l-15-15c-5 6-8 13-9 21z m18-30l15 15c2-1 4-2 6-2l0-21c-7 1-15 4-21 8z m72 44l-20 0c-1 2-2 4-3 6l15 15c4-6 7-13 8-21z m-39 38c8-1 15-4 22-8l-15-15c-2 1-4 2-7 3l0 20z m1-90l0 21c2 1 4 2 6 3l15-15c-6-5-13-8-21-9z m30 18l-15 15c1 2 2 4 3 6l21 0c-1-8-4-15-9-21z m156 178c-1 2-3 2-5 2h-65c-2 0-4-1-5-4l-4-10c0 0-182 66-222 80-32 11-119 10-170 9-25-1-50-6-73-15-43-18-115-47-152-67-88-2-170-22-188-30s-58-45-58-45l-47-25c-7-3-11-10-10-17l3-39c1-8 7-15 16-17l113-17 9 1c-5 9-9 20-10 31-1 4-1 8-1 11-1 49 39 89 87 90 49 0 89-40 89-88 0-2 0-5 0-7-1-11-3-21-8-31l428 1c-4 8-6 16-7 24-1 4-1 8-1 11 0 49 39 89 87 90 50 0 89-40 90-88 0-2 0-5-1-7 0-6-1-12-2-17l3 0 77 23c7 2 13 9 13 16l7 57c1 7 0 15-4 21l-13 22 20 16c1 0 2 2 2 3l3 11c0 2 0 4-1 5z m-346-10l-195-6c0 0 0 24-29 27l46 27c17 10 35 15 55 15 35 0 93-1 127-3 7 0 12-3 15-9s3-11 0-17c-9-18-19-34-19-34z" horiz-adv-x="1000" />

<glyph glyph-name="supercar" unicode="&#xe85c;" d="M314 292c0 43-36 79-80 78s-79-36-79-80c0-3 1-7 1-10 5-39 39-69 79-69 42 1 76 33 79 74 0 2 0 4 0 7z m-87 48l0-23c-2-1-4-2-7-3l-16 16c7 5 15 9 23 10z m-32-20l16-16c-1-2-2-4-3-7l-23 0c1 9 5 17 10 23z m-10-37l23 1c1-3 2-5 3-7l-16-17c-5 7-8 15-10 23z m20-32l16 16c2-1 5-2 7-3l0-23c-8 2-16 5-23 10z m79 47l-23 0c-1 2-2 5-3 7l16 16c5-7 9-14 10-23z m-43 42c9-1 17-4 23-9l-16-17c-2 2-4 3-7 3l0 23z m1-98l0 22c2 1 4 2 7 3l16-16c-7-5-15-8-23-9z m33 19l-17 16c1 2 2 4 3 7l23 0c-1-8-4-16-9-23z m574 112c-43 0-79-36-78-80 0-3 0-6 1-10 5-39 38-69 79-68 42 0 75 32 78 73 0 2 1 5 1 7-1 44-37 79-81 78z m-6-30l0-23c-2 0-5-1-7-3l-16 16c6 5 14 9 23 10z m-33-19l17-17c-2-2-3-4-3-7l-23 0c1 9 4 17 9 24z m-9-37l23 0c1-3 2-5 3-7l-16-16c-5 6-9 14-10 23z m20-33l16 16c2-1 4-2 7-2l0-23c-9 1-17 4-23 9z m78 47l-22 0c-1 2-2 5-3 7l16 16c5-6 8-14 9-23z m-42 42c8-1 16-4 23-9l-16-16c-2 1-5 2-7 3l0 22z m1-98l-1 23c3 0 5 1 7 3l16-16c-6-6-14-9-22-10z m32 19l-16 16c1 3 2 5 3 7l23 1c-2-9-5-17-10-24z m109 70c-1 2-2 3-4 4l-9 3 6 27c1 5-1 10-6 12l-11 5 6 34c1 6-3 11-9 13-66 13-385 99-592 31-61-20-154-55-154-55s-140-24-226-108l8-18-6-24c-1-1 0-3 1-5 1-1 3-2 5-2l144-8 6 1c-6 10-11 22-12 35-1 4-1 7-1 11-1 49 39 90 89 91 50 0 90-40 90-89 0-3 0-6 0-8-1-14-5-27-12-39l448 5 11 1c-5 9-8 20-10 31 0 4-1 8-1 11 0 50 40 90 89 91 50 0 91-40 91-89 0-3 0-5 0-8-1-9-3-17-6-25l7 0c9 1 16 6 21 13l20 10 18 43c0 2 0 4-1 6z m-714 69c-2 1-3 3-4 5s1 3 3 4c9 4 25 11 46 19v-39c-15 2-34 8-45 11z m127 14c-3 6-8 9-14 8-17-1-49-5-53-18-2-6 20-16 20-16s-12-1-25 0v43c21 7 47 16 78 24 45 11 107 14 164 10l17-54c-99-14-188-18-188-18l2 11c1 4 0 7-1 10z m217 2l-15 47c51-5 95-15 112-26-31-8-64-15-97-21z" horiz-adv-x="1000" />

<glyph glyph-name="timing-belt" unicode="&#xe85d;" d="M213 215c-84 0-152-68-152-152s68-152 152-152c84 0 152 68 152 152s-68 152-152 152z m0-262c-61 0-110 49-110 110s49 110 110 110c61 0 110-49 110-110s-49-110-110-110z m0 164c-30 0-54-24-54-54s24-55 54-55 55 25 55 55-25 54-55 54z m0-67c-7 0-13 6-13 13s6 13 13 13 13-6 13-13-6-13-13-13z m123 551c42 0 77 35 77 78s-35 78-77 78-78-35-78-78c0-43 35-78 78-78z m0 114c20 0 36-16 36-36s-17-36-36-36-37 16-37 36 17 36 37 36z m562-302c0-18-14-32-31-32s-32 14-32 32c0 17 14 31 32 31s31-14 31-31z m38-114c38 24 64 66 64 114 0 47-25 89-62 112l-517 302c-25 15-54 23-85 23-76 0-139-49-162-116-1-3-167-618-168-623l0 0 0 0c-4-16-6-32-6-48 0-118 96-213 213-213 40 0 78 11 110 31 3 1 612 418 613 418z m-98-16l-424-290c8 22 12 46 12 70 0 117-96 213-213 213-49 0-95-17-131-46l100 374c27-57 86-96 154-96 94 0 171 77 171 171 0 19-4 38-10 55l332-194c-55-16-95-67-95-127 0-64 44-117 104-130z m29 38c-51 0-92 41-92 92s41 91 92 91 91-41 91-91c0-51-41-92-91-92z m-531 487c71 0 129-58 129-129s-58-129-129-129-130 58-130 129 58 129 130 129z m-294-745c0 94 77 171 171 171s171-77 171-171-76-171-171-171-171 76-171 171z" horiz-adv-x="1000" />

<glyph glyph-name="van-black-transport-side-view-pointing-to-left" unicode="&#xe85e;" d="M141 298c-37 0-66-30-66-67 0-3 0-6 1-8 4-33 32-58 66-58 35 1 63 28 65 62 1 2 1 3 1 5-1 37-31 66-67 66z m-6-25l0-19c-2-1-4-2-6-3l-13 14c5 4 12 7 19 8z m-27-17l13-13c-1-2-1-4-2-6l-19 0c1 7 4 14 8 19z m-8-31l19 1c1-2 2-4 3-6l-14-14c-4 6-7 12-8 19z m17-27l13 14c2-1 4-2 6-2l0-20c-7 1-14 4-19 8z m65 40l-19 0c0 2-1 4-2 5l13 14c5-5 7-12 9-19z m-35 35c7-1 14-4 19-8l-13-14c-2 2-4 2-6 3l0 19z m0-83l0 20c2 0 4 1 6 2l14-13c-6-5-12-7-20-9z m28 17l-14 13c1 2 2 4 2 6l20 0c-1-7-4-14-8-19z m608 91c-36 0-66-30-65-67 0-3 0-6 0-8 5-33 33-58 67-58 35 1 63 28 65 62 0 2 1 3 1 5-1 37-31 66-68 66z m-5-25l0-19c-2-1-4-2-6-3l-13 14c5 4 12 7 19 8z m-27-17l13-13c-1-2-2-4-2-6l-19 0c1 7 3 14 8 19z m-8-31l19 1c1-2 1-4 3-6l-14-14c-4 6-7 12-8 19z m16-27l14 14c2-1 4-2 6-2l0-20c-7 1-14 4-20 8z m66 40l-19 0c0 2-1 4-2 5l13 14c4-5 7-12 8-19z m-36 35c8-1 14-4 20-8l-13-14c-2 2-4 2-6 3l-1 19z m1-83l0 20c2 0 4 1 6 2l13-13c-5-5-12-7-19-9z m28 17l-14 13c1 2 2 4 2 6l19 0c-1-7-3-14-7-19z m174 66l-23 10c0 0 20 119-33 227-2 4-6 8-11 9-75 22-513 20-618 1-9-1-18-5-25-11-31-25-109-93-109-93s-89-16-119-21c-26-5-38-19-38-37 0-16 1-65 1-65l-10-3c-4-1-7-4-7-9v-26c0 0 3-16 17-26 2-1 18-2 43-3 0 2 0 3 0 5-1 45 36 82 81 82 45 0 82-36 82-81 0-2 0-6 0-6l480 3c0 0-1 1-1 2 0 45 36 82 81 82 46 0 82-36 83-81 0-2 0-6 0-6l63 11v-12c0-3 3-5 5-5h12c2 0 5 2 5 5v13h36c7 0 13 6 13 13v10c0 5-3 10-8 12z m-612 138c0-3-3-5-6-5h-110c0 0 0 29-1 37-1 11-5 16-5 16l40 37c5 4 11 7 18 7l63 1c2 0 3-1 5-2s1-3 1-4l-5-87z" horiz-adv-x="1000" />

<glyph glyph-name="wallet" unicode="&#xe85f;" d="M616 550c-10 19-35 28-54 18-10-5-17-13-21-23s-2-21 2-31c5-10 14-16 24-19 3-2 8-3 13-3 6 0 12 1 17 4 10 5 18 13 21 23s3 21-2 31z m-30-32c-3-3-8-3-12-1s-7 3-8 7c-2 5-2 10 0 13s3 8 7 9c2 1 5 1 7 1 1 0 4 0 5-1 4-1 7-4 9-7 3-8 0-17-8-21z m-482 6c-3 7-10 10-16 6l-24-12c-6-3-8-10-6-16 3-5 6-7 11-7 1 0 4 0 5 1l23 12c7 3 9 10 7 16z m63 31c-2 7-10 9-16 6l-23-12c-6-3-9-10-6-16 2-5 6-8 11-8 1 0 4 0 5 1l23 13c6 2 9 10 6 16z m63 32c-3 6-10 8-16 6l-23-13c-7-2-9-9-7-16 3-4 7-7 11-7 2 0 4 0 5 1l24 13c6 2 8 9 6 16z m62 30c-2 6-10 9-16 6l-23-12c-6-2-9-10-6-16 2-5 6-7 11-7 1 0 4 0 5 1l23 12c6 3 9 10 6 16z m64 31c-4 6-11 8-16 6l-23-12c-6-3-9-10-6-16 2-5 6-8 11-8 1 0 3 0 5 2l23 12c6 2 8 10 6 16z m62 30c-2 7-9 9-15 7l-24-13c-6-2-8-10-6-16 3-5 6-7 11-7 1 0 4 0 5 1l23 12c8 3 10 10 6 16z m63 32c-2 6-10 9-16 6l-23-12c-6-2-9-10-6-16 2-5 6-7 11-7 1 0 3 0 5 1l23 12c6 3 8 10 6 16z m62 31c-2 6-9 8-15 6l-24-12c-6-4-8-11-6-17 3-4 7-7 11-7 1 0 4 0 5 2l23 12c6 2 9 10 6 16z m64 31c-2 6-10 8-16 6l-23-13c-6-2-9-9-6-16 2-4 6-7 11-7 1 0 4 0 5 1l23 13c6 2 9 9 6 16z m-322-618c-3 7-10 10-16 6l-23-12c-6-3-9-10-6-16 2-5 6-7 11-7 1 0 3 0 5 1l23 12c6 2 8 10 6 16z m64 31c-4 7-11 9-16 6l-24-13c-6-2-8-9-6-15 3-5 6-8 11-8 2 0 4 0 5 1l24 13c6 2 8 9 6 16z m376 186c-3 6-10 8-16 6l-23-12c-6-3-9-10-6-16 2-5 7-8 11-8 1 0 3 0 4 2l24 12c6 2 8 10 6 16z m64 30c-3 7-10 9-16 7l-24-13c-6-2-8-9-6-16 1-5 6-7 11-7 1 0 4 0 5 1l23 13c7 2 9 9 7 15z m164-161l-209 56 78 39c29 15 41 51 27 79l-59 120 5 2c17 9 24 30 16 47l-49 99c-4 9-11 15-20 17s-18 3-26-1l-5-2-54 110c-14 29-50 42-78 27l-546-267c-15-8-25-19-30-35-5-14-4-30 3-45l192-392c10-21 31-33 53-33 8 0 17 2 25 6l69 34-9-33c-4-16-2-33 7-48s22-25 38-29l470-128c6-1 11-2 17-2 28 0 54 18 62 47l68 253c9 35-12 70-45 79z m-227 436c1 1 3 1 5 1 1 0 2 0 4 0 2-1 5-2 6-5l49-99c2-5 0-11-5-13l-17-9-211-103c-2-1-5-1-7 0s-5 2-6 5l-50 99c-2 5 0 11 5 14l211 103 16 7z m-461-586c-8-3-17-5-25-1-9 2-16 9-20 17l-192 392c-4 9-5 17-2 26 3 9 9 16 18 20l545 267c17 8 38 1 46-16l54-110-199-99c-18-8-25-29-16-46l49-99c3-9 11-15 19-17 4-2 8-3 11-3 5 0 10 1 15 4l200 98 59-120c8-17 1-38-16-47l-101-51-55 14 4 2c6 2 8 9 6 16s-10 8-16 6l-23-13c-2-1-3-1-4-2l-137 37c-16 5-33 2-48-6s-26-22-30-38l-51-189-91-42z m640-175c-6-21-27-33-48-27l-470 127c-10 3-19 10-24 19s-6 19-3 29l43 160 545-149-43-159z m49 184l-545 147 12 43 545-147-12-43z m20 70l-2-4-545 148 1 4c3 10 10 18 19 23s19 6 29 4l471-128c19-4 33-27 27-47z m-509-70l-26 7c-6 1-13-2-14-8-4-7 0-14 7-15l26-7c1 0 2 0 3 0 5 0 10 3 13 8 1 6-3 14-9 15z m63-17l-26 7c-6 1-14-2-15-9-4-6 0-13 7-14l26-8c1 0 3 0 4 0 5 0 10 4 12 9 1 6-2 13-8 15z m61-18l-26 8c-6 1-13-3-15-9-2-6 2-13 8-14l25-8c2 0 3 0 4 0 5 0 10 4 12 9 2 6-2 13-8 14z m62-17l-25 8c-7 1-14-3-15-9-3-6 1-12 7-15l26-7c1 0 2 0 4 0 5 0 9 4 12 9 1 6-3 13-9 14z m214-34c-7 11-18 20-30 23-6 2-12 3-18 2-5 3-11 6-17 8-26 7-53-8-60-34-4-13-2-26 4-37 4-11 15-20 27-23 4-2 9-2 14-2 2 0 4 0 6 0 5-3 11-6 17-8 4-1 9-1 14-1 8 0 17 2 24 6 11 6 20 17 23 29s2 26-4 37z m-92-10c-3-8-3-17 0-24-4 2-8 5-10 9-3 4-4 11-3 18 3 11 14 18 25 18-6-6-10-13-12-21z m35-11c-1-6-5-11-10-13-2 5-3 11-1 17 1 6 5 11 10 13 2-5 4-11 1-17z m37-10c-1-6-6-12-11-14-4-3-9-4-12-4 3 7 8 15 11 22 2 8 2 17 0 25 3-3 7-5 10-10 3-7 3-13 2-19z" horiz-adv-x="1000" />

<glyph glyph-name="wheel" unicode="&#xe860;" d="M854 704c-95 94-220 146-354 146s-259-52-354-146c-94-95-146-220-146-354s52-259 146-354c95-94 220-146 354-146s259 52 354 146c94 95 146 220 146 354s-52 259-146 354z m-354-814c-254 0-460 206-460 460s206 460 460 460 460-206 460-460c0-254-206-460-460-460z m0 835c-207 0-375-168-375-375s168-375 375-375c207 0 375 168 375 375s-168 375-375 375z m0-710c-185 0-335 150-335 335s150 335 335 335c185 0 335-150 335-335s-150-335-335-335z m70 335c0 38-32 70-70 70s-70-32-70-70 32-70 70-70c38 0 70 32 70 70z m-100 0c0 17 14 30 30 30s30-13 30-30c0-16-13-30-30-30s-30 13-30 30z m30 307c-169 0-307-138-307-307s138-307 307-307c169 0 307 138 307 307s-138 307-307 307z m267-307c0-29-4-57-13-83l-108 72c-6 3-6 9-6 11s0 8 6 12l108 71c9-26 13-54 13-83z m-68 179l-116-58c-6-3-11-1-13 0s-7 4-7 11l-7 129c56-12 105-41 143-82z m-254 82l-8-129c0-7-5-10-7-11s-7-3-13 0l-115 58c37 41 86 70 143 82z m-212-261c0 29 4 57 13 83l108-71c6-4 6-10 6-12s0-8-6-11l-108-72c-9 26-13 54-13 83z m69-179l115 58c6 3 11 1 13 0s7-4 7-11l8-129c-57 12-106 41-143 82z m183-88l-8 137c-1 18-11 34-27 43s-34 10-51 2l-122-62c-6 9-11 18-16 27l115 76c15 9 24 26 24 44s-9 35-24 45l-115 75c5 9 10 18 16 27l122-62c8-4 16-5 24-5 10 0 19 2 27 7 16 9 26 25 27 43l8 137c5 0 10 0 15 0s10 0 16 0l7-137c2-18 11-34 27-43 8-5 17-7 27-7 8 0 16 2 24 5l122 62c6-9 11-18 16-27l-115-75c-15-10-24-27-24-45s9-35 24-44l115-76c-5-9-10-18-16-27l-122 62c-16 8-35 7-51-2s-25-25-27-43l-7-137c-6 0-11 0-16 0s-10 0-15 0z m71 6l7 129c0 7 5 10 7 11s7 3 13 0l115-58c-37-41-86-70-143-82z" horiz-adv-x="1000" />

<glyph glyph-name="wheel2" unicode="&#xe861;" d="M1000 566v166c0 46-37 83-83 83h-499c-46 0-83-37-83-83v-150c-192-8-342-170-335-362s170-343 363-335c11 0 23 1 34 3 7-2 14-3 21-4h499c46 1 83 38 83 84v166c0 46-37 83-83 83h-1c11 14 17 32 18 50v166c-1 18-7 36-18 50h1c46 0 83 37 83 83z m-582 216h499c27 0 50-22 50-50h-599c0 28 23 50 50 50z m-50-83h599v-33h-599v33z m0-66h599v-34h-599v34z m113-687c-5-3-10-5-16-7-2-1-4-1-7-2-164-59-345 26-404 190s27 345 191 404c34 12 70 19 107 19 10 0 19-1 29-2 3 0 6-1 9-1 7-1 13-2 20-3 3-1 7-1 10-2 6-2 12-3 18-5 4-1 7-2 11-3 5-2 11-4 16-6 9-3 17-7 26-11 2-1 5-2 7-4 6-3 12-6 17-10 2-1 4-2 6-3 6-4 11-8 17-12 2-1 3-2 5-3 6-5 11-9 17-14 2-2 4-4 6-6 4-4 9-8 13-13 3-3 6-6 9-9 3-4 6-8 9-11 4-5 7-10 11-14 2-3 4-6 6-9 2-2 3-4 4-6 5-8 10-16 14-24 1-2 1-3 2-5 5-9 9-19 13-29 0-1 0-1 1-2 3-10 6-19 9-29l0-1c3-11 5-21 7-32v0c1-8 1-15 2-21 1-9 1-17 1-26 0-11 0-21-1-32 0-1-1-2-1-3 0-8-2-16-3-23-1-4-2-7-2-10-2-6-3-12-5-17-1-7-4-13-6-20-1-3-2-5-3-8-3-9-7-18-12-27-1-2-1-3-2-4-5-10-11-20-17-30l0 0c-2-3-5-6-7-10-3-4-6-8-9-11-2-3-5-6-7-9-5-6-9-11-14-16-3-2-5-5-8-7-4-5-9-9-14-13-3-3-6-5-9-8-4-3-8-6-13-9-3-2-6-5-9-7-6-3-11-7-17-10-6-3-11-6-17-9-3-2-6-4-10-5z m218 316v0c0 1 0 3 0 5h201c0-28-22-50-50-50h-150c1 6 1 11 1 17 0 9-1 18-2 28z m-5 38c-2 11-5 23-8 33h214v-33h-206z m-20 67c-4 11-10 22-15 33h241v-33h-226z m-36 66c-3 4-6 7-8 11-4 5-7 9-11 14-2 3-5 5-8 8-5 6-10 11-15 17l0 0h254c28 0 50-22 50-50h-262z m279-515h-417c3 1 6 3 9 5 4 1 8 3 11 5 8 4 16 9 23 14 3 2 6 4 9 6 6 4 11 8 16 12 3 2 5 4 8 6 0 1 1 1 2 2h389c0-28-23-50-50-50z m50 83h-355c1 2 3 4 5 6 2 3 4 5 6 8 5 6 10 13 15 19h329v-33z m0 66h-308c5 11 11 22 15 34h293v-34z m-50 117v0c27 0 50-23 50-50h-281c1 2 1 3 1 5 2 7 4 14 6 21 1 4 1 8 2 11 1 4 2 9 2 13h220z m-361 332c-1 1-1 1-2 2-5 3-10 7-16 10-3 2-6 4-9 6-5 3-10 6-15 9-8 4-16 8-24 11-3 2-7 3-10 4-7 3-13 5-19 7-1 1-2 1-3 1h509c0-27-22-50-50-50 0 0 0 0 0 0h-361z m48-198v0c-2 5-3 9-5 14-2 3-3 7-5 10 0 0 0 1 0 1-1 2-1 3-2 4-3 6-6 12-10 18 0 1 0 1 0 2-1 1-2 2-2 3-4 6-8 12-12 17 0 1 0 2-1 2-1 1-2 2-2 3-4 6-9 11-13 16 0 1-1 1-1 2-1 0-1 0-1 0-38 43-89 73-146 84-5 1-9 2-14 3-4 0-7 1-11 1-2 0-4 0-6 0-7 1-14 2-21 2s-14-1-21-1c-2-1-4 0-6-1-4 0-7-1-11-1-5-1-9-2-14-3h0c-57-11-109-41-147-84 0 0 0-1-1-1 0 0 0-1-1-1-4-5-8-10-12-16-1-1-2-2-3-3 0 0 0-1-1-2-4-5-8-11-11-17-1-1-2-2-2-3-1-1-1-2-2-2-1-3-3-6-4-9-2-4-5-9-7-13 0-1 0-1 0-1-3-8-6-15-9-22 0-1 0-2 0-2v0c-19-55-19-114 0-168 0 0 0 0 0-1 1-4 3-9 5-14 1-3 3-6 4-10 0 0 0-1 1-1 0-1 1-2 1-3 3-6 7-13 10-19 0-1 1-1 1-2 0-1 1-2 2-3 3-6 7-12 11-17 1-1 1-1 1-2 1-1 2-2 3-3 4-5 8-11 12-16 1 0 1-1 2-2 0 0 0 0 1 0 38-43 89-73 145-84 5-1 10-2 14-2 4-1 8-2 12-2 9-1 18-1 27-1s18 0 27 1l0 0c8 1 16 2 26 4 56 12 107 41 145 84 0 0 0 0 1 0 0 1 1 2 1 2 5 5 9 11 13 16 1 1 1 2 2 3 1 1 1 1 1 2 4 6 8 11 12 18 0 1 1 2 2 3 0 0 0 1 1 1 2 5 5 10 7 15 1 2 3 5 4 8 0 0 0 0 1 1 3 7 5 14 8 21 0 1 1 2 1 3v0c18 54 18 113 0 168z m-186 139c35-11 67-29 93-54l-93-54v108z m-133 0v-108l-93 54c27 25 58 43 93 54z m-159-277c-9 35-9 72 0 107l93-53-93-54z m159-169c-35 10-66 29-93 54l93 54v-108z m133 0v108l93-54c-26-25-58-44-93-54z m150 136c-2-3-3-6-4-8 0-1-1-2-1-3-2-3-3-5-4-8l-4-7c0-1-1-2-2-3s-1-2-2-3c-3-6-6-11-10-16-2-3-4-6-7-9l-124 72c-8 4-18 2-23-6-1-3-2-6-2-9v-143c-3-1-6-1-9-2h-1c-15-1-31-1-47 0h0c-3 1-6 1-9 2v143c0 9-8 17-17 17-3 0-6-1-8-2l-125-72c-2 3-4 6-7 9-3 5-7 11-10 16-1 1-2 2-2 3-3 6-6 12-9 18-1 1-1 2-2 3-1 3-2 5-3 8l0 0 124 72c8 5 11 15 6 23-1 3-3 5-6 6l-124 72c1 3 2 6 3 9 1 1 1 2 2 3 3 6 6 12 9 18 1 1 1 2 2 3 3 5 7 10 10 16 3 3 5 6 7 9l125-72c7-5 18-2 22 6 2 2 3 5 2 8v144c3 0 6 1 10 1l0 0c16 2 32 2 47 0h1c3 0 6-1 9-1v-144c0-9 7-16 17-16 2 0 5 0 8 2l124 72c3-3 5-6 7-9 4-5 7-11 11-17 0-1 1-2 1-3s2-2 2-3l3-6c1-2 2-3 3-5 1-2 2-4 3-7 1-2 2-5 3-8l-124-72c-8-4-11-15-6-23 1-2 4-4 6-6l125-72-1 0z m10 33l-93 54 93 54c9-36 9-73 0-108z m-226 104c-28 0-50-23-50-50s22-50 50-50 50 22 50 50-23 50-50 50z m0-67c-9 0-17 8-17 17s8 16 17 16 16-7 16-16-7-17-16-17z" horiz-adv-x="1000" />

<glyph glyph-name="www" unicode="&#xe862;" d="M891 546h-782c-60 0-109-49-109-109v-174c0-60 49-109 109-109h782c60 0 109 49 109 109v174c0 60-49 109-109 109z m66-283c0-36-30-65-66-65h-782c-36 0-65 29-65 65v174c0 36 29 65 65 65h782c36 0 66-29 66-65v-174z m-457 500c-12 0-22-10-22-22v-217c0-12 10-22 22-22s22 10 22 22v217c0 12-10 22-22 22z m0-565c-12 0-22-10-22-22v-217c0-12 10-22 22-22s22 10 22 22v217c0 12-10 22-22 22z m216 332c-40 144-123 233-216 233s-176-89-215-233c-4-12 3-24 15-27 11-3 23 4 26 15 34 123 102 202 174 202s140-79 174-202c2-9 11-16 21-16 2 0 3 0 5 1 12 3 19 15 16 27z m-16-333c-11 3-23-4-26-15-34-122-102-202-174-202s-140 80-174 202c-3 11-15 18-26 15-12-3-19-15-15-27 39-144 122-233 215-233s176 89 216 233c3 12-4 24-16 27z m170 337c-71 141-212 229-370 229s-299-88-370-229c-5-11-1-24 10-30 11-5 24 0 29 10 63 127 190 206 331 206s268-79 331-206c4-7 11-12 19-12 3 0 7 1 10 3 11 5 15 18 10 29z m-10-338c-11 5-24 1-29-10-63-127-190-206-331-206s-268 79-331 206c-5 11-18 15-29 10-11-6-15-19-10-30 71-141 212-229 370-229s299 88 370 229c5 11 1 24-10 30z m-268 262c-12 3-23-4-26-16l-25-101-20 59c-6 18-36 18-42 0l-19-59-26 101c-3 12-15 19-26 16-12-3-19-15-16-26l44-174c2-10 10-16 20-17 11 0 18 6 21 15l23 69 23-69c3-9 11-15 21-15 0 0 0 0 0 0 10 1 18 7 21 17l43 174c3 11-4 23-16 26z m-261 0c-11 3-23-4-26-16l-25-101-20 59c-6 18-36 18-41 0l-20-59-26 101c-3 12-15 19-26 16-12-3-19-15-16-26l44-174c2-10 10-16 20-17 11 0 18 6 21 15l23 69 23-69c3-9 11-15 21-15 0 0 0 0 0 0 10 1 18 7 21 17l43 174c3 11-4 23-16 26z m522 0c-12 3-23-4-26-16l-26-101-19 59c-6 18-36 18-42 0l-20-59-25 101c-3 12-15 19-26 16-12-3-19-15-16-26l43-174c3-10 11-16 21-17 11 0 18 6 21 15l23 69 23-69c3-9 11-15 20-15 1 0 1 0 1 0 10 1 18 7 20 17l44 174c3 11-4 23-16 26z" horiz-adv-x="1000" />
</font>
</defs>
</svg>
