<?xml version="1.0" encoding="utf-8"?>
<!-- Generator: Adobe Illustrator 20.1.0, SVG Export Plug-In . SVG Version: 6.00 Build 0)  -->
<svg version="1.1"
	 id="Слой_1" inkscape:version="0.91 r13725" sodipodi:docname="uploading-file.svg" xmlns:cc="http://creativecommons.org/ns#" xmlns:dc="http://purl.org/dc/elements/1.1/" xmlns:inkscape="http://www.inkscape.org/namespaces/inkscape" xmlns:rdf="http://www.w3.org/1999/02/22-rdf-syntax-ns#" xmlns:sodipodi="http://sodipodi.sourceforge.net/DTD/sodipodi-0.dtd" xmlns:svg="http://www.w3.org/2000/svg"
	 xmlns="http://www.w3.org/2000/svg" xmlns:xlink="http://www.w3.org/1999/xlink" x="0px" y="0px" viewBox="0 0 220 130"
	 style="enable-background:new 0 0 220 130;" xml:space="preserve">
<style type="text/css">
	.st0{fill:#DBE5EC;}
	.st1{fill:#ECF3F8;stroke:#FFFFFF;stroke-width:4;stroke-miterlimit:10;}
	.st2{fill:#C3D1DB;}
	.st3{fill:#1093FF;stroke:#FFFFFF;stroke-width:4;stroke-miterlimit:10;}
	.st4{fill:#FFFFFF;stroke:#FFFFFF;stroke-width:2;stroke-miterlimit:10;}
</style>
<sodipodi:namedview  bordercolor="#666666" borderopacity="1" gridtolerance="10" guidetolerance="10" id="namedview20" inkscape:current-layer="Слой_1" inkscape:cx="69.444887" inkscape:cy="69.630819" inkscape:pageopacity="0" inkscape:pageshadow="2" inkscape:window-height="1377" inkscape:window-maximized="1" inkscape:window-width="2560" inkscape:window-x="-8" inkscape:window-y="-8" inkscape:zoom="1.888" objecttolerance="10" pagecolor="#ffffff" showgrid="false">
	</sodipodi:namedview>
<path id="XMLID_1_" inkscape:connector-curvature="0" class="st0" d="M197.5,65.6c0-0.6,0.1-1.2,0.1-1.8c0-13.5-11-24.5-24.5-24.5
	c-8.2,0-15.5,4.1-20,10.3c-1.4-0.3-2.8-0.5-4.3-0.5c-9.4,0-17.3,6.7-19,15.7c-8.9,1.8-15.6,9.6-15.6,19c0,10.7,8.7,19.4,19.4,19.4
	h57.2c10.7,0,19.4-8.7,19.4-19.4C210.2,75.5,205,68.4,197.5,65.6z"/>
<path id="XMLID_2_" inkscape:connector-curvature="0" class="st1" d="M158.5,104.2c0-0.3,0-0.6,0-1c0-7.2-5.8-13-13-13
	c-4.4,0-8.3,2.2-10.6,5.5c-0.7-0.2-1.5-0.3-2.3-0.3c-5,0-9.2,3.6-10.1,8.3c-4.7,0.9-8.3,5.1-8.3,10.1c0,5.7,4.6,10.3,10.3,10.3h30.4
	c5.7,0,10.3-4.6,10.3-10.3C165.2,109.5,162.5,105.7,158.5,104.2z"/>
<path id="XMLID_3_" inkscape:connector-curvature="0" class="st2" d="M10.3,89c0,10.1,8.2,18.2,18.2,18.2h53.7
	c10.1,0,18.2-8.2,18.2-18.2c0-8.8-6.3-16.2-14.6-17.9c-1.6-8.4-9-14.7-17.9-14.7c-1.4,0-2.7,0.2-4,0.5c-4.2-5.9-11-9.7-18.7-9.7
	c-12.7,0-23,10.3-23,23c0,0.6,0,1.1,0.1,1.7C15.2,74.5,10.3,81.2,10.3,89z"/>
<path id="XMLID_4_" inkscape:connector-curvature="0" class="st1" d="M58.2,30.9c0,5.7,4.6,10.3,10.3,10.3h30.4
	c5.7,0,10.3-4.6,10.3-10.3c0-5-3.6-9.2-8.3-10.1c-0.9-4.8-5.1-8.3-10.1-8.3c-0.8,0-1.5,0.1-2.3,0.3c-2.4-3.3-6.2-5.5-10.6-5.5
	c-7.2,0-13,5.8-13,13c0,0.3,0,0.7,0,1C61,22.7,58.2,26.4,58.2,30.9z"/>
<circle id="circle13" class="st3" cx="96.3" cy="76.2" r="44.5"/>
<g id="arrow">
	<path id="path16" inkscape:connector-curvature="0" class="st4" d="M96.3,92L96.3,92c-0.7,0-1.3-0.6-1.3-1.3V61.6
		c0-0.7,0.6-1.3,1.3-1.3l0,0c0.7,0,1.3,0.6,1.3,1.3v29.2C97.6,91.5,97,92,96.3,92z"/>
	<path id="path18" inkscape:connector-curvature="0" class="st4" d="M107.5,74c-0.3,0-0.7-0.1-0.9-0.4L96.4,63.4L86.2,73.6
		c-0.5,0.5-1.3,0.5-1.8,0s-0.5-1.3,0-1.8l11.2-11.2c0.5-0.5,1.3-0.5,1.8,0l11.2,11.2c0.5,0.5,0.5,1.3,0,1.8
		C108.1,73.9,107.8,74,107.5,74z"/>
</g>
</svg>
