<svg
   xmlns:dc="http://purl.org/dc/elements/1.1/"
   xmlns:cc="http://creativecommons.org/ns#"
   xmlns:rdf="http://www.w3.org/1999/02/22-rdf-syntax-ns#"
   xmlns:svg="http://www.w3.org/2000/svg"
   xmlns="http://www.w3.org/2000/svg"
   xmlns:sodipodi="http://sodipodi.sourceforge.net/DTD/sodipodi-0.dtd"
   xmlns:inkscape="http://www.inkscape.org/namespaces/inkscape"
   version="1.1"
   id="File"
   x="0px"
   y="0px"
   viewBox="0 0 324 175"
   xml:space="preserve"
   inkscape:version="0.91 r13725"
   sodipodi:docname="upload-file.svg"
   width="324"
   height="175"><metadata
     id="metadata36"><rdf:RDF><cc:Work
         rdf:about=""><dc:format>image/svg+xml</dc:format><dc:type
           rdf:resource="http://purl.org/dc/dcmitype/StillImage" /><dc:title></dc:title></cc:Work></rdf:RDF></metadata><defs
     id="defs34" /><sodipodi:namedview
     pagecolor="#ffffff"
     bordercolor="#666666"
     borderopacity="1"
     objecttolerance="10"
     gridtolerance="10"
     guidetolerance="10"
     inkscape:pageopacity="0"
     inkscape:pageshadow="2"
     inkscape:window-width="1546"
     inkscape:window-height="1019"
     id="namedview32"
     showgrid="false"
     borderlayer="true"
     inkscape:zoom="0.944"
     inkscape:cx="3.9630947"
     inkscape:cy="350.28263"
     inkscape:window-x="0"
     inkscape:window-y="0"
     inkscape:window-maximized="0"
     inkscape:current-layer="File" /><style
     type="text/css"
     id="style3">
	.st0{fill:#DBE5EC;}
	.st1{fill:#C3D1DB;}
	.st2{fill:#ECF3F8;}
	.st3{fill:#828A96;}
	.st4{fill:#828A96;}
	.st5{fill:#E0E9EF;}
</style><g
     id="g5"
     transform="translate(-106,-169)"><path
       id="XMLID_1_"
       class="st0"
       d="m 408.7,204.6 c 0.1,-0.7 0.1,-1.5 0.1,-2.2 0,-16.4 -13.3,-29.6 -29.6,-29.6 -10,0 -18.8,4.9 -24.1,12.5 -1.7,-0.4 -3.4,-0.6 -5.2,-0.6 -11.4,0 -20.9,8.2 -23,18.9 -10.7,2.1 -18.8,11.6 -18.8,23 0,12.9 10.5,23.4 23.4,23.4 l 69.1,0 c 12.9,0 23.4,-10.5 23.4,-23.4 0,-10.1 -6.4,-18.7 -15.3,-22 z"
       inkscape:connector-curvature="0"
       style="fill:#dbe5ec" /></g><g
     id="g8"
     transform="translate(-106,-169)"><path
       class="st1"
       d="m 197,324 -63,0 c -12.5,0 -23.2,-9.5 -24,-22 -0.6,-10.7 5.9,-20 15.3,-23.5 -0.1,-0.7 -0.1,-1.5 -0.1,-2.2 0,-16.4 13.3,-29.6 29.6,-29.6 10,0 18.8,4.9 24.1,12.5 1.7,-0.4 3.4,-0.6 5.2,-0.6 1.2,0 3.8,0.4 3.7,0.3 C 188,317 187,324 197,324"
       id="path10"
       inkscape:connector-curvature="0"
       style="fill:#c3d1db" /></g><g
     id="g12"
     transform="translate(-106,-169)"><path
       id="XMLID_4_"
       class="st2"
       d="m 121,193.9 c 0,5 4.1,9.1 9.1,9.1 l 26.9,0 c 5,0 9.1,-4.1 9.1,-9.1 0,-4.4 -3.1,-8.1 -7.3,-8.9 -0.8,-4.2 -4.5,-7.4 -8.9,-7.4 -0.7,0 -1.4,0.1 -2,0.2 -2.1,-2.9 -5.5,-4.8 -9.4,-4.8 -6.3,0 -11.5,5.1 -11.5,11.5 0,0.3 0,0.6 0,0.9 -3.5,1.2 -6,4.6 -6,8.5 z"
       inkscape:connector-curvature="0"
       style="fill:#ecf3f8" /></g><g
     id="g15"
     transform="translate(-106,-169)"><g
       id="arrow"><path
         class="st3"
         d="m 238.2,300.8 0,0 c -0.7,0 -1.3,-0.6 -1.3,-1.3 l 0,-29.2 c 0,-0.7 0.6,-1.3 1.3,-1.3 l 0,0 c 0.7,0 1.3,0.6 1.3,1.3 l 0,29.2 c 0,0.7 -0.6,1.3 -1.3,1.3 z"
         id="path18"
         inkscape:connector-curvature="0"
         style="fill:#828a96;stroke:#828a96;stroke-width:3;stroke-miterlimit:10" /><path
         class="st3"
         d="m 249.3,282.7 c -0.3,0 -0.7,-0.1 -0.9,-0.4 L 238.2,272.1 228,282.3 c -0.5,0.5 -1.3,0.5 -1.8,0 -0.5,-0.5 -0.5,-1.3 0,-1.8 l 11.2,-11.2 c 0.5,-0.5 1.3,-0.5 1.8,0 l 11.2,11.2 c 0.5,0.5 0.5,1.3 0,1.8 -0.4,0.3 -0.7,0.4 -1.1,0.4 z"
         id="path20"
         inkscape:connector-curvature="0"
         style="fill:#828a96;stroke:#828a96;stroke-width:3;stroke-miterlimit:10" /></g><g
       id="file"><path
         class="st4"
         d="m 280.4,324.6 -84.5,0 c -5.3,0 -9.7,-4.3 -9.7,-9.7 l 0,-109.2 c 0,-5.3 4.3,-9.7 9.7,-9.7 l 61.3,0 c 1.1,0 1.9,0.9 1.9,1.9 0,1.1 -0.9,1.9 -1.9,1.9 l -61.3,0 c -3.2,0 -5.8,2.6 -5.8,5.8 l 0,109.4 c 0,3.2 2.6,5.8 5.8,5.8 l 84.5,0 c 3.2,0 5.8,-2.6 5.8,-5.8 l 0,-85.3 c 0,-1.1 0.9,-1.9 1.9,-1.9 1,0 1.9,0.9 1.9,1.9 l 0,85.3 c 0.1,5.3 -4.3,9.6 -9.6,9.6 z"
         id="path23"
         inkscape:connector-curvature="0"
         style="fill:#828a96" /><path
         class="st4"
         d="m 288.1,231.6 -30.9,0 c -1.1,0 -1.9,-0.9 -1.9,-1.9 l 0,-30.9 c 0,-1.1 0.9,-1.9 1.9,-1.9 1,0 1.9,0.9 1.9,1.9 l 0,28.9 28.9,0 c 1.1,0 1.9,0.9 1.9,1.9 0.2,1.1 -0.7,2 -1.8,2 z"
         id="path25"
         inkscape:connector-curvature="0"
         style="fill:#828a96" /><path
         class="st4"
         d="m 288.1,231.6 c -0.5,0 -1,-0.2 -1.4,-0.6 l -30.9,-31.7 c -0.7,-0.8 -0.7,-2 0,-2.7 0.8,-0.7 2,-0.7 2.7,0 l 30.9,31.7 c 0.7,0.8 0.7,2 0,2.7 -0.3,0.4 -0.8,0.6 -1.3,0.6 z"
         id="path27"
         inkscape:connector-curvature="0"
         style="fill:#828a96" /></g></g><g
     id="g29"
     transform="translate(-106,-169)"><path
       id="XMLID_2_"
       class="st5"
       d="m 328,309.2 c 0,-0.5 0.1,-1 0.1,-1.4 0,-10.7 -8.7,-19.4 -19.4,-19.4 -6.5,0 -12.3,3.2 -15.8,8.2 -1.1,-0.2 -2.2,-0.4 -3.4,-0.4 -7.5,0 -13.7,5.3 -15.1,12.4 -7,1.4 -12.3,7.6 -12.3,15.1 0,8.5 6.9,15.4 15.4,15.4 l 45.3,0 c 8.5,0 15.4,-6.9 15.4,-15.4 -0.1,-6.7 -4.3,-12.3 -10.2,-14.5 z"
       inkscape:connector-curvature="0"
       style="fill:#e0e9ef" /></g></svg>